<svg width="3006" height="1988" viewBox="0 0 3006 1988" fill="none" xmlns="http://www.w3.org/2000/svg">
<path d="M807.608 809.833L816.682 808.698H839.32L854.064 807.564L860.823 806.43H877.836L891.4 803.027L895.937 796.221L898.205 788.326V779.251L900.474 771.31L901.608 762.281L905.01 756.609L907.279 742.997L908.413 730.565L910.681 722.624L912.949 707.878L914.084 699.983L917.486 684.102L918.62 665.998L919.755 650.117L921.977 643.311L925.38 630.878L928.782 614.997L929.916 607.102V598.027L933.319 582.147L934.453 574.252L936.721 567.445L938.99 559.505L937.856 552.699L944.661 528.923L943.526 522.117L945.795 514.222L949.197 498.341L951.42 485.909V479.103L955.957 458.73L957.091 450.789L962.762 436.043L963.896 428.148V413.401L965.03 405.461L968.433 398.7L966.164 390.76V381.685L970.701 374.879L971.835 366.984L975.238 351.103L976.372 344.297L977.506 327.327L983.131 311.446L984.266 294.476L986.534 276.372L988.802 261.626L989.936 254.819L995.607 241.253L996.741 234.447L999.01 219.7L1000.14 210.671L1002.41 202.73L1003.55 194.79L1006.95 180.089L1008.08 172.148L1010.35 157.447V149.507L1011.44 134.76L1013.71 125.731L1015.98 117.79L1017.11 109.85V100.775L1018.25 84.9397L1022.78 71.3275V63.4324L1023.92 56.6264L1022.78 52.089L1027.32 45.2829L1026.18 37.3878L1027.32 30.5818L1019.38 20.3726L1011.44 16.9696L993.339 14.7009H961.628L938.99 13.5665H898.206L888.043 14.7009L881.238 15.8353L872.165 26.0445L871.031 32.8505L872.165 40.7456L869.897 48.686L865.36 58.8951L864.226 65.7012L861.958 80.4023L859.735 87.2084L856.332 101.91V110.984L851.796 126.865L850.661 134.76L851.796 143.835V157.447L847.259 167.611L846.125 182.357L842.722 197.059V204.999L840.454 211.805L839.32 219.7L838.186 228.775L837.051 236.715L835.917 243.521L830.246 258.223L832.515 265.029L826.889 281.998L825.755 289.939V297.879L821.218 308.088L818.95 320.521L817.816 326.193L794.044 325.058L784.97 326.193L771.36 325.058L762.333 326.193L729.487 325.058H720.414L712.475 323.924L714.743 314.849L715.877 308.088L718.146 299.014L717.011 292.207L719.28 284.267L722.682 269.566L721.548 261.626L724.951 254.819L726.085 246.924L728.353 237.85L730.621 232.178V225.372L731.756 211.805L734.024 206.133L735.158 191.387L737.427 182.357L739.649 174.417V156.313L743.052 148.372L744.186 134.76L746.454 118.925L750.991 97.4175L752.125 87.2084L755.528 76.9992L756.662 61.1637L757.796 54.3577L761.199 40.7455L760.064 32.8504V26.0444L757.796 15.8352L746.454 13.5665L732.89 11.2979L721.548 14.7009H696.642L680.764 13.5665L634.354 14.7009H606.045L595.838 20.3726L594.704 32.8504L593.569 46.4172L590.167 61.1637L587.944 69.0588L589.033 78.1336L585.676 86.074L584.541 94.0144L582.273 101.909L583.407 117.79L575.468 132.491V156.313L572.066 171.014L570.931 177.82L569.797 186.895L565.261 195.924V211.805L564.126 217.477L560.724 241.253L558.456 250.282L556.233 265.029L551.696 288.804L550.562 304.685L549.428 312.58L542.623 328.461L541.488 344.297L539.22 360.178L538.086 366.984L532.415 399.834L527.924 415.67V424.745L524.521 433.774L521.119 441.714L518.85 458.73V466.625L516.582 480.237L513.18 491.535L512.046 506.282L507.509 522.117L508.643 530.057L506.375 539.132L505.241 545.938L502.972 552.699L497.347 592.356L495.078 601.431L491.676 617.266V626.341L490.542 634.281L486.005 644.445L481.468 652.385L482.603 668.266L478.066 684.102L479.2 693.177L476.932 701.117L470.127 713.549L472.395 721.49L470.127 728.296V736.191L467.859 746.4L466.77 757.744L461.099 772.445L456.562 782.654V791.729L461.099 804.161L483.737 806.43H519.985L533.549 808.698L541.489 806.43L549.428 805.295L557.367 808.698H566.395L583.407 806.43L596.972 805.295L607.179 804.161L616.253 799.624L621.878 788.326L624.146 771.31L625.281 763.37L627.549 754.341L629.817 738.46V730.565L633.22 714.684L634.354 705.609L641.159 673.893L643.427 656.923L647.964 642.176L649.053 636.55L654.723 622.938L653.589 616.132L660.394 591.221L666.065 565.177L668.333 557.236V537.998L672.87 530.057L675.138 515.356L679.63 499.475L680.764 490.446L681.898 484.774L701.179 485.909L718.146 489.312L754.394 485.909L764.601 488.177H772.495L782.702 487.043L780.434 500.61V508.55L778.166 524.386L775.897 532.326L772.495 548.207V561.774L770.227 573.117L765.735 585.55L758.93 619.535L756.662 641.087L753.259 658.057L752.125 673.893L749.857 679.564L748.723 694.311L747.588 702.206V710.146L746.454 718.087L741.918 741.863V757.744L737.426 765.639L735.158 775.848L734.024 786.057L732.89 795.086L739.649 805.295L747.588 806.43H755.528L768.003 807.564H798.58L807.608 809.833Z" fill="#070707"/>
<path d="M1083.9 809.833L1092.97 808.699L1124.68 809.833L1131.44 805.295L1135.98 797.355L1139.38 791.729L1142.78 779.251L1149.59 762.281L1160.89 740.728L1165.42 727.162L1168.83 719.221L1171.09 711.281L1179.03 696.58L1184.7 684.102H1215.28L1265.09 685.236L1283.19 687.505L1308.15 688.639L1309.23 697.714V750.938L1308.15 762.281L1309.23 773.579L1310.37 793.952L1312.64 805.295L1317.17 808.699H1334.19L1348.88 809.833L1360.23 808.699L1368.17 807.564L1381.73 808.699H1390.8L1415.71 807.564H1431.54L1440.62 808.699L1448.55 807.564C1453.09 807.564 1456.49 808.699 1460.99 807.564C1466.66 804.161 1465.52 793.952 1464.39 789.46V765.639L1463.25 740.728V730.565L1462.12 721.49L1463.25 705.609V688.639L1462.12 680.699L1460.99 665.998V659.192L1458.76 616.132L1459.9 608.237L1458.76 592.356L1459.9 575.386L1458.76 558.371V550.476L1457.63 498.341V464.356L1456.49 455.327L1455.36 441.715V397.566L1453.09 385.088L1451.96 366.984V360.178L1450.82 345.431L1451.96 338.671L1450.82 322.79V300.148L1448.55 284.267V259.357L1449.69 251.417L1448.55 234.447V218.611L1446.29 195.924L1445.15 181.223V165.342L1444.02 124.597V104.178L1441.75 97.4177V72.462L1438.35 23.7759L1430.41 18.1041L1424.78 15.8354H1406.64L1396.47 16.9699L1388.54 14.7012H1378.33L1356.82 15.8355H1338.72L1327.38 16.97L1305.88 15.8355H1294.54L1286.6 16.97L1282.06 29.4478L1278.7 36.2539L1275.3 44.1489L1265.09 64.5671L1257.15 79.2682L1250.35 99.6411L1248.13 105.313L1243.59 112.119L1236.78 124.597L1234.52 132.492L1232.25 139.298L1228.84 146.104L1226.58 154.044L1216.41 174.417L1213.01 182.358L1209.61 193.656L1202.8 203.865L1199.4 210.671L1193.73 225.372L1184.7 249.148L1180.17 255.954L1174.5 263.895L1171.09 279.73L1164.29 294.477L1162.02 300.148L1158.62 314.849L1152.99 322.79L1149.59 337.536L1146.19 344.297L1139.38 356.775L1133.71 376.013L1125.82 390.76L1122.42 399.835L1113.34 431.506L1109.94 438.312L1104.27 454.193L1100.87 460.953L1097.51 468.894L1096.37 475.7L1089.57 491.535L1087.3 499.476L1080.5 513.088L1074.83 522.117L1072.56 532.326L1070.29 540.267L1062.4 556.102L1058.99 564.043L1053.32 578.789L1049.92 585.55L1048.79 593.49L1046.52 600.296L1040.85 613.863L1035.22 621.804L1032.95 628.61L1023.88 648.983L1019.34 663.729L1006.91 690.908L1001.24 704.475L994.436 718.087L983.095 752.072L974.067 766.773L967.262 780.385L966.128 787.191L963.859 795.087L966.128 804.161L976.335 806.43L1058.99 807.564L1066.93 808.699L1083.9 809.833ZM1270.76 536.864L1260.56 535.729L1248.13 534.595H1239.05L1231.11 527.789L1234.52 519.894L1236.78 509.685L1239.05 501.744L1244.72 482.506L1249.21 474.565L1254.89 457.595L1256.02 449.655L1262.82 424.745L1266.23 414.536L1269.63 406.595L1273.03 396.431L1277.57 388.491L1278.7 380.551L1283.19 369.253L1287.73 360.178L1293.4 342.028L1296.8 330.73L1302.47 312.581L1307.01 297.879L1316.04 294.476L1317.17 320.521L1316.04 361.312L1314.91 404.327L1316.04 431.506L1313.77 440.58V459.864L1312.64 467.759V497.207L1311.5 506.282L1312.64 515.356L1311.5 531.192L1304.74 536.864H1270.76Z" fill="#070707"/>
<path d="M1745.23 821.177L1756.53 818.908L1771.27 817.774H1788.24L1802.98 814.37L1816.55 812.102L1830.16 808.699L1859.6 801.893L1867.54 798.49L1885.64 787.192L1902.65 772.445L1919.62 752.072L1921.89 745.266L1925.29 738.46L1930.96 731.699L1935.45 724.893L1938.86 716.953L1944.53 703.341L1951.33 685.236L1954.73 678.43L1957 670.535L1958.14 662.595L1961.54 648.983L1968.3 620.669L1970.57 613.863L1973.97 590.087L1975.1 585.55L1976.24 577.655L1978.51 571.983L1979.64 559.505L1981.91 544.804V536.864L1984.18 530.058V517.625L1979.64 509.685L1971.7 501.744L1958.14 500.61L1902.65 497.207H1878.84L1849.39 496.073L1840.37 497.207L1832.43 506.282L1830.16 517.625L1824.49 532.326L1823.35 540.267L1821.08 550.476L1817.68 567.446L1814.28 581.058L1813.19 586.684L1812.06 593.49L1807.52 608.237L1801.85 624.072L1792.78 644.445L1788.24 650.117L1772.41 660.326H1755.39L1737.29 662.595L1720.33 656.923L1711.25 648.983L1706.72 632.013V624.072L1705.58 617.266V605.968L1706.72 590.087L1710.12 574.252V565.177L1713.52 541.401L1712.39 533.461L1714.66 525.52L1715.79 517.625V508.551L1716.92 500.61L1720.33 492.67V468.894L1723.68 451.924L1725.95 442.849L1728.22 428.148L1729.35 420.208L1733.89 402.058L1735.02 393.029L1744.1 347.7L1749.77 330.73L1752.04 314.85L1754.26 306.954L1755.39 300.148L1756.53 292.208L1759.93 281.999L1763.33 268.432L1766.74 251.417L1771.27 237.85V231.044L1778.08 211.805L1783.75 197.059L1788.24 177.82L1791.64 169.88L1795.04 163.074L1805.25 150.641L1817.68 146.104L1831.29 143.835H1843.77L1859.6 148.373L1872.08 155.179L1878.84 175.552V192.522L1876.57 208.402L1875.43 223.104L1868.67 248.059L1866.41 263.895L1861.87 284.268L1859.6 292.208V308.089L1867.54 320.521L1900.39 325.059L1971.7 326.193L1987.58 325.059L2001.14 323.924L2005.68 319.387L2011.35 289.939L2013.62 280.864L2020.43 236.716L2022.69 218.611L2024.96 201.596L2027.18 192.521L2028.32 181.223V156.313L2027.18 139.298L2026.05 129.089L2024.96 114.388L2023.83 100.776L2021.56 88.3431L2015.89 76.9996L2013.62 69.0592L2010.22 63.4329L2004.55 53.2237L2002.28 47.552L1989.85 36.2539L1975.1 24.9104L1959.27 19.2387L1946.8 16.97L1942.26 13.567L1934.36 12.4325L1926.43 10.1638L1919.62 9.02949L1903.79 6.80617H1892.45L1882.24 3.40313L1853.93 0H1835.83L1814.28 1.13444H1797.31L1789.37 2.26878L1774.67 5.67191L1755.39 9.02949L1731.62 19.2386L1724.82 22.6417L1710.12 29.4478L1703.31 35.1195L1687.48 50.955L1678.41 62.2985L1670.47 73.5966L1662.57 80.4026L1658.04 92.8805L1651.23 108.716L1645.56 122.328L1638.76 141.567L1634.22 157.447L1627.46 180.089L1619.52 202.731L1616.12 217.477L1612.72 225.372L1611.58 233.313L1610.45 240.119L1608.18 248.059L1607.05 255.954L1603.64 262.76L1602.55 274.104L1600.29 286.536L1598.02 294.477L1592.35 317.118V332.999L1588.94 339.76V346.566L1587.81 360.178L1584.41 371.476L1582.14 383.954L1578.74 396.432V400.924L1577.6 404.327V420.208L1573.07 427.014L1569.71 447.387L1570.84 453.058L1567.44 465.491L1565.17 474.565L1566.31 484.775L1561.77 500.61L1559.5 524.386L1558.37 531.192V539.133L1556.1 554.968L1554.96 570.849L1553.83 579.924L1552.7 603.7V633.147L1551.56 641.088V651.251L1552.7 660.326V681.833L1554.96 689.774L1557.23 704.475L1559.5 711.281L1562.9 726.028L1573.07 740.729L1581.01 756.609L1586.68 762.281L1591.21 767.908L1605.91 779.251L1612.72 783.788L1618.39 788.326L1629.73 795.087L1636.49 800.758L1650.1 805.296L1664.8 810.967L1671.6 812.102L1679.54 814.37L1690.88 815.505L1697.64 816.639L1706.72 817.773L1719.19 818.908L1727.09 820.042H1735.02L1745.23 821.177Z" fill="#070707"/>
<path d="M2040.74 807.564L2052.08 806.43L2062.29 807.564H2083.79L2091.73 806.43L2095.13 807.564H2101.89L2117.77 806.43L2131.34 807.564L2141.54 806.43H2170.99L2183.46 801.893L2189.09 779.251V765.639L2193.62 753.207L2198.16 737.326L2199.29 722.625L2200.43 714.684L2202.7 707.878L2206.1 694.311L2209.5 676.162L2211.77 652.386L2214.04 645.58L2217.4 637.685L2218.53 622.938L2219.66 613.863L2220.8 598.028L2223.07 588.953L2226.47 573.118V566.312L2227.6 558.371L2229.87 544.804L2232.14 530.058L2234.41 506.282L2236.68 499.476L2237.81 491.535L2240.08 482.506L2241.21 475.7H2244.62L2251.38 492.67L2261.58 522.117L2264.99 531.192L2268.39 541.401L2269.52 550.476L2275.19 562.909V570.849L2280.82 583.281L2284.22 591.222L2285.36 598.028L2287.62 612.729L2294.43 627.476L2298.97 641.088L2303.5 656.923L2309.13 672.759L2311.4 679.565L2313.66 687.505L2317.07 702.206L2321.6 711.281L2326.14 724.893L2335.21 756.61L2345.38 783.789L2348.78 798.49L2353.31 805.296L2366.92 807.564L2391.83 806.43L2399.72 807.564H2423.54L2433.7 806.43L2468.82 807.564H2497.13L2523.17 806.43L2524.3 796.221L2522.03 790.595L2515.27 771.311L2510.74 758.878L2502.8 745.266L2499.39 732.788L2498.26 723.759L2494.86 718.087L2491.46 710.147V701.117L2488.1 694.311L2486.96 686.371L2485.83 676.162L2476.76 662.595V655.789L2472.22 641.088L2467.68 633.147V626.341L2466.55 618.401L2457.52 604.834L2455.25 596.894L2450.72 583.281L2445.05 570.849L2443.91 562.909L2439.37 552.699L2438.24 545.939L2434.84 536.864L2433.7 527.789L2429.17 517.625L2423.54 505.148L2419 490.446L2416.74 481.372L2407.66 449.655L2404.26 436.043L2398.59 422.476L2396.37 411.133L2390.7 393.029L2388.43 381.685L2399.72 359.044L2420.14 331.865L2428.08 319.387L2433.7 309.223L2441.64 299.014L2454.12 279.73L2464.28 266.163L2472.22 254.82L2489.19 229.91L2495.99 220.835L2502.8 210.671L2514.14 197.059L2519.76 189.119L2526.57 181.223L2531.11 169.88L2540.18 159.671L2544.72 150.641L2551.47 143.835L2556.01 137.029L2565.08 126.866L2570.76 115.522L2575.29 107.582L2583.19 96.2835L2587.72 90.6118L2588.86 83.8057L2594.53 78.134L2600.2 70.1936L2610.36 57.7611L2619.43 46.4177L2622.84 38.4772L2631.91 24.9104L2628.51 16.97L2614.9 13.567L2604.73 14.7013L2582.05 12.4326L2566.22 14.7013H2544.72L2539.04 15.8357L2527.7 14.7013H2492.59L2472.22 13.567L2460.88 16.97L2451.85 29.4478L2448.45 38.4772L2441.64 45.2833L2429.17 62.2985L2419 76.9996L2406.53 94.0149L2399.72 103.044L2397.5 110.985L2387.29 123.463L2375.95 140.432L2370.28 150.641L2361.25 160.805L2353.31 172.149L2344.24 183.492L2341.97 189.119L2336.35 200.462L2327.27 208.402L2320.47 217.477L2313.66 227.641L2301.23 242.387L2294.43 255.954L2283.09 267.298L2280.82 259.357L2284.22 238.984L2287.62 225.372L2293.29 194.79L2295.56 188.03V180.089L2297.83 172.149L2298.96 160.805L2301.23 150.641L2303.5 141.567L2305.77 118.925L2306.9 110.985L2310.26 94.0149L2313.66 74.731L2314.8 58.8955L2317.07 39.6116L2319.33 28.3135L2315.93 20.373L2306.9 15.8357H2289.89L2272.92 14.7013H2264.99L2243.48 15.8357L2227.6 14.7013H2199.29L2183.46 13.5669L2175.52 15.8356H2165.32L2160.78 19.2386L2157.38 29.4477L2154.02 50.955L2151.75 64.5671V79.2683L2148.35 91.7462V106.447L2143.81 121.194L2139.28 150.641L2138.14 159.671L2135.87 166.477L2134.74 182.358V189.119L2132.47 197.059V203.865L2130.2 211.805L2126.8 225.372L2127.93 233.313L2125.71 249.148L2122.31 255.954L2121.17 270.701L2118.91 278.641V285.402L2115.5 292.208L2114.37 308.089L2113.23 320.521L2109.83 336.402L2106.43 354.506L2105.3 362.447L2104.16 371.476L2100.76 387.357L2096.27 409.999L2094 427.014L2092.86 434.909L2091.73 450.79L2087.19 467.759L2083.79 484.775L2081.52 493.804L2078.12 509.685L2073.58 541.401L2071.32 558.371L2067.91 574.252L2062.29 598.028V605.968L2057.75 620.669V627.476L2055.48 634.282L2054.35 650.117L2050.95 658.058L2048.68 678.43V684.102L2045.28 698.849V706.744L2044.14 715.818V723.759L2039.6 738.46L2038.47 745.266L2035.11 760.013L2036.2 767.908L2032.85 775.848V783.789L2031.71 800.758L2040.74 807.564Z" fill="#070707"/>
<path d="M486.717 914.505C478.097 933.653 469.478 952.801 458.907 970.27C419.847 1036.15 371.94 1094.41 321.991 1150.99C239.969 1244.28 158.763 1336.62 78.5548 1429.77C58.276 1453.5 39.0406 1478.14 21.6652 1503.5C12.6373 1517.16 6.51281 1533.31 2.29373 1549.33C-5.01028 1573.92 5.51474 1589.71 28.3794 1598.92C49.2934 1606.5 70.4342 1605.73 90.5315 1603.19C128.14 1600.2 162.165 1587.35 195.056 1571.79C348.984 1500.42 500.871 1426.46 649.22 1343.56C671.359 1331.67 692.318 1317.06 713.368 1303.4C718.676 1300.18 721.897 1294.42 726.887 1287.52C700.62 1282.26 700.711 1283.17 677.574 1294.24C515.842 1371.74 354.111 1449.28 192.334 1525.87C164.751 1539.12 135.263 1550.74 106.591 1561.31C99.378 1563.76 90.9852 1562.58 82.7285 1563.22C74.4718 1540.8 84.0895 1522.52 94.8414 1506.91C114.667 1477.64 134.537 1449.28 157.22 1421.6C231.304 1332.67 306.34 1243.6 381.331 1154.58C413.405 1116.96 446.522 1081.07 475.693 1041.82C504.138 1005.43 530.541 966.413 553.224 926.756C580.036 881.246 558.668 856.2 510.171 849.893C505.499 849.348 501.869 849.666 497.287 850.029C472.608 852.888 446.84 854.022 422.433 860.601C362.05 878.342 302.711 897.853 242.373 916.502C235.205 918.907 226.858 918.68 216.877 920.404C224.181 896.719 237.837 882.744 251.492 868.723C321.311 795.762 396.165 727.973 477.19 667.989C506.814 646.21 538.571 628.015 570.373 609.774C587.204 601.063 603.944 591.398 626.037 590.581C647.042 634.095 625.448 675.521 621.455 718.263C626.945 717.855 632.525 718.309 635.201 717.174C669.136 691.402 688.416 655.738 697.217 615.355C703.796 582.505 686.375 560.816 651.17 559.046C626.128 557.322 600.451 559.409 577.45 571.388C542.019 589.901 504.682 607.642 470.385 628.831C372.076 692.037 282.931 765.634 199.094 847.987C185.438 862.008 171.783 876.028 160.124 891.682C149.236 905.476 133.857 920.585 144.608 940.005C155.315 958.518 174.777 959.743 193.196 959.199C219.781 957.066 246.32 954.026 272.587 948.218C310.514 937.827 347.306 924.76 385.141 913.416C416.671 903.525 449.154 894.45 487.897 883.061C487.307 898.806 489.893 907.835 486.717 914.505Z" fill="#8C52FF" fill-opacity="0.5294"/>
<path d="M1096.93 1243.2C1068.17 1263.98 1044.62 1292.61 1008.42 1313.03C1011.5 1294.34 1013.18 1280.36 1016.81 1268.07C1028.33 1227.46 1040.76 1186.8 1051.38 1146.28C1055.78 1132.08 1059.18 1117.06 1060.68 1101.23C1062.36 1076.18 1050.56 1066.97 1024.84 1068.1C1008.24 1068.51 993.855 1073.37 981.788 1083.53C961.101 1101.82 939.506 1120.15 919.863 1140.16C896.862 1164.16 875.903 1190.75 853.991 1216.48C849.681 1220.51 844.418 1223.69 834.075 1232.86C840.744 1200.91 847.095 1176.41 850.679 1152.14C854.989 1125.05 846.006 1116.52 818.559 1119.65C813.07 1120.1 808.806 1124.14 802.5 1126.45C793.109 1170.6 782.811 1214.8 775.234 1258.77C770.335 1289.62 786.258 1304.05 816.835 1294.2C826.771 1291.57 836.343 1284.36 845.008 1277.19C858.709 1264.07 872.273 1249.15 885.021 1235.22C906.933 1209.49 928.891 1183.76 950.893 1158.9C965.32 1143.02 980.835 1129.77 996.26 1114.7C1004.92 1130.63 996.623 1142.34 993.81 1153.63C983.421 1196.92 971.218 1240.34 960.829 1283.63C957.426 1298.65 957.744 1314.3 958.061 1330C959.241 1344.66 968.178 1352.24 982.967 1352.92C994.037 1352.96 1005.97 1352.01 1015.77 1347.52C1029.06 1340.94 1042.26 1332.5 1053.38 1321.47C1095.34 1281.18 1137.26 1239.98 1179.18 1198.83C1181.72 1195.83 1183.26 1192.02 1188.21 1184.26C1146.38 1192.2 1123.83 1221.69 1096.93 1243.2Z" fill="#8C52FF" fill-opacity="0.5294"/>
<path d="M1501 1092.83C1474.1 1114.34 1445.97 1131.35 1412.54 1140.52C1389.9 1146.01 1367.76 1145.92 1349.43 1124.32C1362.18 1087.3 1375.11 1053.04 1387.13 1018.87C1390.94 1008.44 1394.48 995.232 1383.68 986.838C1372.93 979.397 1360 979.533 1347.53 985.114C1341.27 987.473 1334.14 990.785 1329.92 995.777C1296.9 1032.53 1277.21 1074.73 1284.06 1125.86C1285.78 1135.85 1286.51 1145.01 1282.56 1153.63C1256.2 1204.68 1229.89 1256.59 1203.44 1306.68C1200.31 1313.39 1196.46 1322.92 1181.35 1318.61C1181.26 1294.61 1180.21 1269.79 1181.89 1244.74C1183.75 1210.44 1185.57 1175.23 1186.48 1140.11C1186.79 1132.67 1183.44 1125.59 1179.76 1113.88C1172.87 1119.96 1167.51 1122.23 1165.06 1126.14C1161.12 1134.76 1157.26 1144.29 1156.26 1154.49C1149.32 1206.72 1144.33 1259.72 1138.43 1312.8C1137.12 1319.38 1138.61 1326.64 1139.2 1333.99C1143.65 1354.87 1158.35 1365.66 1178.35 1362.22C1191.06 1359.36 1203.58 1354.68 1212.15 1346.61C1224.36 1337.31 1235.38 1325.37 1243.59 1312.71C1265.64 1276.82 1286.78 1240.98 1307.83 1204.22C1315.13 1191.66 1322.35 1178.13 1328.84 1166.56C1439.57 1166.97 1497.55 1142.02 1537.79 1079.76C1521.6 1073.64 1511.44 1084.62 1501 1092.83Z" fill="#8C52FF" fill-opacity="0.5294"/>
<path d="M1792.75 1049.21C1774.96 1058.02 1771.51 1072.17 1765.03 1083.74C1724.88 1146.95 1675.75 1201.63 1614.68 1246.18C1598.17 1258.57 1581.61 1270.96 1557.02 1274.77C1552.62 1265.87 1547.36 1258.02 1545.73 1248.9C1544.82 1237.92 1545.77 1226.76 1547.68 1215.51C1556.52 1176.08 1565.37 1136.6 1575.12 1097.08C1577.75 1083.93 1584.06 1070.49 1581.11 1056.88C1549.08 1048.4 1540.05 1050.94 1528.12 1074.99C1506.08 1121.95 1489.7 1171.27 1481.8 1222.63C1481.31 1228.21 1480.85 1233.8 1480.35 1239.38C1478.45 1284.75 1499.59 1307.03 1545.59 1305.21C1577.84 1304.49 1605.61 1293.96 1631.79 1275.27C1691.9 1230.76 1742.03 1176.94 1777.23 1109.52C1784.49 1096.04 1789.8 1081.75 1794.11 1066.64C1795.65 1062.83 1793.38 1057.47 1792.75 1049.21ZM1591.68 969.311C1595.95 965.273 1599.35 961.325 1601.71 956.515C1607.06 942.268 1611.46 928.066 1618.36 910.915C1592.14 905.606 1570.18 908.283 1550.04 921.895C1534.29 932.376 1530.48 953.884 1539.74 966.089C1552.08 981.698 1577.12 983.422 1591.68 969.311Z" fill="#8C52FF" fill-opacity="0.5294"/>
<path d="M2111.37 1053.32C2094.9 1066.61 2079.39 1080.77 2064.91 1095.79C2016.55 1148.56 1969.14 1202.19 1920.78 1254.96C1911.44 1264.9 1902.05 1274.88 1891.02 1286.86C1866.48 1256.5 1850.06 1224.61 1838.13 1190.48C1827.47 1160.9 1829.78 1132.09 1841.39 1104.41C1857.59 1064.34 1885.58 1033.54 1924.5 1012.89C1930.72 1009.62 1939.2 1011.71 1949.27 1010.89C1947.28 1032.27 1945.92 1049.92 1943.38 1075.96C1955.94 1071.29 1966.92 1070.38 1970.23 1065.52C1981.08 1050.82 1989.97 1035.31 1996.91 1018.15C2002.22 1003.91 1995.64 990.567 1980.35 984.396C1971.82 981.401 1961.52 979.45 1952.27 979.269C1876.6 978.86 1792.26 1043.74 1773.16 1116.3C1766.81 1140.8 1764.27 1166.84 1775.43 1190.89C1785.73 1215.89 1797.93 1241.67 1811.81 1265.49C1824.74 1288.45 1839.4 1310.36 1853.23 1333.23C1843.16 1346.03 1834.81 1356.87 1826.51 1368.58C1810.09 1393.9 1792.71 1419.26 1777.34 1446.35C1770.89 1457.92 1768.4 1472.89 1767.67 1486.82C1766.45 1506.29 1778.33 1516.4 1799.66 1517.45C1816.31 1517.99 1832.5 1513 1847.43 1503.52C1869.34 1488.82 1889.16 1471.58 1904.91 1449.07C1923.23 1424.52 1932.13 1397.07 1925.05 1366.26C1923.6 1359.91 1922.1 1352.65 1920.6 1345.39C1930.67 1332.59 1939.88 1320.8 1949.09 1308.96C2008.89 1237.76 2068.81 1167.43 2127.7 1096.29C2137 1085.4 2146.35 1075.46 2154.6 1063.71C2157.91 1058.81 2158.32 1052.32 2160.55 1045.7C2139.59 1037.21 2124.21 1041.2 2111.37 1053.32ZM1874.83 1442.26C1865.35 1462.36 1850.96 1478.29 1826.51 1483.96C1836.86 1451.75 1855.09 1426.29 1878.82 1399.48C1887.67 1418.17 1881.27 1430.65 1874.83 1442.26Z" fill="#8C52FF" fill-opacity="0.5294"/>
<path d="M2383.11 1002.07C2365.32 1010.87 2361.87 1025.02 2355.39 1036.6C2315.24 1099.8 2266.11 1154.48 2205.04 1199.03C2188.53 1211.42 2171.97 1223.81 2147.38 1227.62C2142.98 1218.73 2137.72 1210.88 2136.08 1201.76C2135.18 1190.78 2136.13 1179.61 2138.04 1168.36C2146.88 1128.93 2155.73 1089.46 2165.48 1049.94C2168.11 1036.78 2174.42 1023.35 2171.47 1009.73C2139.44 1001.25 2130.41 1003.79 2118.48 1027.84C2096.43 1074.8 2080.06 1124.12 2072.16 1175.48C2071.66 1181.07 2071.21 1186.65 2070.71 1192.23C2068.81 1237.6 2089.95 1259.88 2135.95 1258.07C2168.2 1257.34 2195.97 1246.81 2222.15 1228.12C2282.26 1183.61 2332.39 1129.79 2367.59 1062.37C2374.85 1048.89 2380.16 1034.6 2384.47 1019.49C2386.01 1015.68 2383.74 1010.32 2383.11 1002.07ZM2182.04 922.162C2186.31 918.124 2189.71 914.177 2192.07 909.367C2197.42 895.12 2201.82 880.918 2208.72 863.766C2182.49 858.457 2160.54 861.134 2140.39 874.747C2124.65 885.228 2120.84 906.735 2130.1 918.941C2142.44 934.549 2167.48 936.274 2182.04 922.162Z" fill="#8C52FF" fill-opacity="0.5294"/>
<path d="M2568.89 1133.99C2551.92 1140.89 2534.95 1147.74 2515.08 1141.97C2519.48 1127.77 2523.07 1114.57 2526.7 1102.27C2535.27 1071.15 2542.03 1040.16 2540.4 1007.99C2538.9 966.559 2521.44 943.963 2491.81 942.647C2483.46 942.375 2475.3 943.963 2467.18 946.459C2441.95 953.991 2421.27 972.277 2402.85 995.871C2383.61 1020.51 2370.14 1048.32 2373.9 1084.03C2365.15 1101.32 2356.3 1117.75 2348.41 1134.03C2339.92 1155.04 2331.53 1176.91 2329.76 1201.05C2327.81 1234.45 2337.79 1255.77 2361.29 1261.31C2375.45 1264.76 2391.01 1263.53 2404.57 1259.67C2426.26 1254.28 2445.26 1237.99 2462.14 1218.16C2475.71 1203.23 2489.18 1187.39 2504.38 1169.56C2565.67 1162.85 2572.84 1160.4 2593.93 1135.67C2579.55 1128.5 2579.55 1128.5 2568.89 1133.99ZM2386.42 1240.84C2377.35 1242.48 2369.55 1237.58 2368.55 1224.74C2366.69 1212.89 2366.55 1199.96 2368.37 1187.8C2372.86 1163.48 2379.3 1139.89 2392.23 1116.7C2405.93 1126.68 2415.82 1135.12 2426.57 1142.56C2437.23 1149.1 2448.85 1155.54 2460.42 1162.03C2447.4 1195.33 2409.92 1234.36 2386.42 1240.84ZM2479.24 1131.9C2456.33 1122.65 2441.36 1108.17 2432.65 1080.27C2427.66 1064.02 2426.66 1051.23 2432.83 1035.94C2446.08 1005.35 2463.41 979.99 2488.27 967.83C2500.7 973.32 2503.7 987.84 2504.83 1001.59C2508.55 1048.37 2499.07 1091.56 2479.24 1131.9Z" fill="#8C52FF" fill-opacity="0.5294"/>
<path d="M2885.42 1100.37C2856.66 1121.15 2833.11 1149.78 2796.91 1170.2C2800 1151.5 2801.67 1137.53 2805.3 1125.23C2816.83 1084.62 2829.26 1043.97 2839.87 1003.45C2844.27 989.245 2847.68 974.227 2849.17 958.391C2850.85 933.345 2839.06 924.134 2813.33 925.268C2796.73 925.677 2782.35 930.532 2770.28 940.695C2749.59 958.981 2728 977.312 2708.35 997.322C2685.35 1021.32 2664.39 1047.91 2642.48 1073.64C2638.17 1077.68 2632.91 1080.86 2622.57 1090.02C2629.24 1058.08 2635.59 1033.58 2639.17 1009.3C2643.48 982.212 2634.5 973.682 2607.05 976.813C2601.56 977.267 2597.3 981.305 2590.99 983.619C2581.6 1027.77 2571.3 1071.96 2563.73 1115.93C2558.83 1146.78 2574.75 1161.21 2605.33 1151.37C2615.26 1148.73 2624.84 1141.52 2633.5 1134.35C2647.2 1121.24 2660.77 1106.31 2673.51 1092.38C2695.43 1066.65 2717.38 1040.93 2739.39 1016.06C2753.81 1000.18 2769.33 986.931 2784.75 971.867C2793.42 987.793 2785.11 999.5 2782.3 1010.8C2771.91 1054.08 2759.71 1097.51 2749.32 1140.79C2745.92 1155.81 2746.24 1171.47 2746.55 1187.17C2747.73 1201.82 2756.67 1209.4 2771.46 1210.08C2782.53 1210.13 2794.46 1209.17 2804.26 1204.68C2817.55 1198.1 2830.75 1189.66 2841.87 1178.64C2883.83 1138.34 2925.75 1097.14 2967.67 1055.99C2970.21 1053 2971.75 1049.18 2976.7 1041.43C2934.87 1049.37 2912.32 1078.86 2885.42 1100.37Z" fill="#8C52FF" fill-opacity="0.5294"/>
<path d="M516.022 877.575C507.402 896.723 498.782 915.871 488.212 933.34C449.152 999.223 401.244 1057.48 351.296 1114.06C269.273 1207.35 188.067 1299.69 107.859 1392.84C87.5806 1416.57 68.3453 1441.21 50.9699 1466.57C41.942 1480.23 35.8175 1496.38 31.5984 1512.4C24.2944 1536.99 34.8194 1552.78 57.6841 1561.99C78.5981 1569.57 99.7388 1568.8 119.836 1566.26C157.445 1563.27 191.47 1550.42 224.361 1534.86C378.289 1463.49 530.176 1389.53 678.524 1306.63C700.663 1294.74 721.623 1280.13 742.673 1266.47C747.98 1263.25 751.202 1257.49 756.192 1250.59C729.925 1245.33 730.015 1246.24 706.878 1257.31C545.147 1334.81 383.415 1412.35 221.639 1488.94C194.056 1502.19 164.568 1513.81 135.896 1524.38C128.683 1526.83 120.29 1525.65 112.033 1526.29C103.776 1503.87 113.394 1485.59 124.146 1469.98C143.971 1440.71 163.842 1412.35 186.525 1384.67C260.608 1295.74 335.645 1206.67 410.635 1117.65C442.71 1080.03 475.827 1044.14 504.998 1004.89C533.443 968.505 559.846 929.483 582.529 889.826C609.341 844.316 587.973 819.27 539.476 812.963C534.803 812.418 531.174 812.736 526.592 813.099C501.913 815.957 476.145 817.092 451.737 823.671C391.355 841.412 332.015 860.923 271.678 879.572C264.51 881.976 256.162 881.75 246.182 883.474C253.486 859.789 267.141 845.813 280.796 831.793C350.615 758.832 425.47 691.043 506.495 631.059C536.119 609.279 567.876 591.084 599.677 572.844C616.508 564.132 633.249 554.468 655.342 553.651C676.347 597.165 654.752 638.591 650.76 681.333C656.25 680.924 661.83 681.38 664.506 680.245C698.44 654.472 717.721 618.809 726.522 578.426C733.1 545.575 715.68 523.886 680.475 522.117C655.433 520.393 629.756 522.479 606.755 534.458C571.324 552.971 533.987 570.712 499.69 591.902C401.381 655.108 312.235 728.704 228.398 811.058C214.743 825.078 201.088 839.099 189.428 854.753C178.54 868.546 163.161 883.656 173.913 903.076C184.62 921.589 204.082 922.813 222.501 922.269C249.085 920.136 275.625 917.096 301.892 911.289C339.818 900.898 376.611 887.83 414.446 876.487C445.976 866.595 478.458 857.52 517.201 846.132C516.611 861.876 519.197 870.905 516.022 877.575Z" fill="#FF5E8F"/>
<path d="M1126.23 1206.27C1097.47 1227.05 1073.93 1255.68 1037.72 1276.1C1040.81 1257.41 1042.49 1243.43 1046.12 1231.14C1057.64 1190.53 1070.07 1149.87 1080.68 1109.35C1085.09 1095.15 1088.49 1080.13 1089.98 1064.3C1091.66 1039.25 1079.87 1030.04 1054.15 1031.17C1037.54 1031.58 1023.16 1036.44 1011.09 1046.6C990.405 1064.89 968.811 1083.22 949.167 1103.23C926.167 1127.23 905.207 1153.82 883.295 1179.55C878.985 1183.58 873.723 1186.76 863.379 1195.93C870.048 1163.98 876.4 1139.48 879.983 1115.21C884.293 1088.12 875.311 1079.59 847.864 1082.72C842.375 1083.17 838.11 1087.21 831.804 1089.52C822.413 1133.67 812.115 1177.87 804.539 1221.83C799.639 1252.69 815.563 1267.12 846.14 1257.27C856.075 1254.64 865.648 1247.43 874.313 1240.26C888.013 1227.14 901.578 1212.22 914.326 1198.29C936.238 1172.56 958.195 1146.83 980.198 1121.97C994.625 1106.09 1010.14 1092.84 1025.56 1077.77C1034.23 1093.7 1025.93 1105.41 1023.11 1116.7C1012.73 1159.99 1000.52 1203.41 990.133 1246.7C986.731 1261.72 987.048 1277.37 987.366 1293.07C988.545 1307.73 997.483 1315.3 1012.27 1315.99C1023.34 1316.03 1035.27 1315.08 1045.07 1310.59C1058.36 1304.01 1071.57 1295.57 1082.68 1284.54C1124.64 1244.25 1166.56 1203.05 1208.48 1161.9C1211.02 1158.9 1212.57 1155.09 1217.51 1147.33C1175.68 1155.27 1153.14 1184.76 1126.23 1206.27Z" fill="#FF5E8F"/>
<path d="M1530.31 1055.9C1503.4 1077.41 1475.28 1094.42 1441.84 1103.59C1419.2 1109.08 1397.06 1108.99 1378.74 1087.39C1391.48 1050.37 1404.41 1016.11 1416.44 981.941C1420.25 971.505 1423.79 958.301 1412.99 949.907C1402.24 942.466 1389.31 942.602 1376.83 948.183C1370.57 950.542 1363.45 953.855 1359.23 958.846C1326.2 995.599 1306.51 1037.8 1313.36 1088.93C1315.09 1098.92 1315.81 1108.08 1311.87 1116.7C1285.51 1167.75 1259.2 1219.65 1232.75 1269.75C1229.62 1276.46 1225.76 1285.99 1210.65 1281.68C1210.56 1257.68 1209.52 1232.86 1211.2 1207.81C1213.06 1173.51 1214.87 1138.3 1215.78 1103.18C1216.1 1095.74 1212.74 1088.66 1209.07 1076.95C1202.17 1083.03 1196.82 1085.3 1194.37 1089.21C1190.42 1097.83 1186.56 1107.35 1185.57 1117.56C1178.62 1169.79 1173.63 1222.79 1167.74 1275.87C1166.42 1282.45 1167.92 1289.71 1168.51 1297.06C1172.95 1317.93 1187.65 1328.73 1207.66 1325.29C1220.36 1322.43 1232.88 1317.75 1241.46 1309.68C1253.66 1300.38 1264.68 1288.44 1272.9 1275.78C1294.94 1239.89 1316.09 1204.05 1337.14 1167.29C1344.44 1154.72 1351.65 1141.2 1358.14 1129.63C1468.88 1130.04 1526.86 1105.09 1567.1 1042.83C1550.9 1036.71 1540.74 1047.69 1530.31 1055.9Z" fill="#FF5E8F"/>
<path d="M1822.05 1012.28C1804.27 1021.09 1800.82 1035.24 1794.33 1046.81C1754.18 1110.02 1705.05 1164.69 1643.99 1209.25C1627.47 1221.64 1610.92 1234.02 1586.33 1237.84C1581.93 1228.94 1576.66 1221.09 1575.03 1211.97C1574.12 1200.99 1575.08 1189.83 1576.98 1178.58C1585.83 1139.15 1594.67 1099.67 1604.43 1060.15C1607.06 1046.99 1613.36 1033.56 1610.42 1019.95C1578.39 1011.47 1569.36 1014.01 1557.43 1038.05C1535.38 1085.02 1519 1134.34 1511.11 1185.7C1510.61 1191.28 1510.16 1196.86 1509.66 1202.44C1507.75 1247.82 1528.89 1270.1 1574.89 1268.28C1607.15 1267.56 1634.91 1257.03 1661.09 1238.34C1721.2 1193.82 1771.33 1140.01 1806.54 1072.58C1813.79 1059.11 1819.1 1044.82 1823.41 1029.71C1824.95 1025.89 1822.69 1020.54 1822.05 1012.28ZM1620.99 932.379C1625.25 928.341 1628.65 924.393 1631.01 919.584C1636.37 905.336 1640.77 891.134 1647.66 873.983C1621.44 868.674 1599.48 871.351 1579.34 884.963C1563.6 895.445 1559.79 916.952 1569.04 929.158C1581.38 944.766 1606.42 946.49 1620.99 932.379Z" fill="#FF5E8F"/>
<path d="M2140.67 1016.39C2124.2 1029.68 2108.68 1043.84 2094.21 1058.86C2045.85 1111.63 1998.44 1165.26 1950.08 1218.03C1940.74 1227.97 1931.34 1237.95 1920.32 1249.93C1895.78 1219.57 1879.35 1187.67 1867.42 1153.55C1856.76 1123.97 1859.08 1095.16 1870.69 1067.48C1886.89 1027.41 1914.88 996.605 1953.8 975.96C1960.02 972.693 1968.5 974.78 1978.57 973.963C1976.57 995.335 1975.21 1012.98 1972.67 1039.03C1985.24 1034.36 1996.22 1033.45 1999.53 1028.59C2010.37 1013.89 2019.26 998.375 2026.21 981.223C2031.51 966.976 2024.94 953.636 2009.65 947.465C2001.12 944.47 1990.82 942.519 1981.57 942.338C1905.89 941.929 1821.56 1006.81 1802.46 1079.37C1796.11 1103.87 1793.57 1129.91 1804.73 1153.96C1815.02 1178.96 1827.23 1204.74 1841.11 1228.56C1854.04 1251.52 1868.69 1273.43 1882.53 1296.3C1872.46 1309.09 1864.11 1319.94 1855.81 1331.65C1839.39 1356.96 1822.01 1382.33 1806.63 1409.42C1800.19 1420.99 1797.69 1435.96 1796.97 1449.89C1795.74 1469.36 1807.63 1479.47 1828.95 1480.52C1845.6 1481.06 1861.8 1476.07 1876.72 1466.59C1898.64 1451.89 1918.46 1434.64 1934.2 1412.14C1952.53 1387.59 1961.42 1360.14 1954.35 1329.33C1952.89 1322.98 1951.4 1315.72 1949.9 1308.46C1959.97 1295.66 1969.18 1283.87 1978.39 1272.02C2038.18 1200.83 2098.11 1130.5 2157 1059.36C2166.3 1048.47 2175.64 1038.53 2183.9 1026.78C2187.21 1021.88 2187.62 1015.39 2189.84 1008.77C2168.88 1000.28 2153.5 1004.27 2140.67 1016.39ZM1904.12 1405.33C1894.64 1425.43 1880.26 1441.36 1855.81 1447.03C1866.15 1414.82 1884.39 1389.36 1908.12 1362.55C1916.96 1381.24 1910.57 1393.72 1904.12 1405.33Z" fill="#FF5E8F"/>
<path d="M2412.41 965.135C2394.63 973.938 2391.18 988.094 2384.69 999.665C2344.54 1062.87 2295.41 1117.55 2234.35 1162.1C2217.83 1174.49 2201.27 1186.88 2176.69 1190.69C2172.29 1181.8 2167.02 1173.95 2165.39 1164.83C2164.48 1153.85 2165.43 1142.68 2167.34 1131.43C2176.19 1092 2185.03 1052.53 2194.79 1013C2197.42 999.846 2203.72 986.415 2200.78 972.803C2168.75 964.318 2159.72 966.859 2147.79 990.907C2125.74 1037.87 2109.36 1087.19 2101.47 1138.55C2100.97 1144.14 2100.52 1149.72 2100.02 1155.3C2098.11 1200.67 2119.25 1222.95 2165.25 1221.13C2197.51 1220.41 2225.27 1209.88 2251.45 1191.19C2311.56 1146.68 2361.69 1092.86 2396.89 1025.44C2404.15 1011.96 2409.46 997.668 2413.77 982.559C2415.31 978.747 2413.05 973.393 2412.41 965.135ZM2211.35 885.232C2215.61 881.193 2219.01 877.246 2221.37 872.436C2226.73 858.189 2231.13 843.987 2238.02 826.836C2211.8 821.527 2189.84 824.204 2169.7 837.816C2153.96 848.297 2150.15 869.805 2159.4 882.01C2171.74 897.619 2196.78 899.343 2211.35 885.232Z" fill="#FF5E8F"/>
<path d="M2598.19 1097.06C2581.23 1103.96 2564.26 1110.81 2544.39 1105.04C2548.79 1090.84 2552.37 1077.64 2556 1065.34C2564.58 1034.22 2571.34 1003.23 2569.7 971.055C2568.21 929.629 2550.74 907.033 2521.12 905.717C2512.77 905.445 2504.6 907.033 2496.48 909.528C2471.26 917.06 2450.57 935.346 2432.15 958.94C2412.92 983.578 2399.44 1011.39 2403.21 1047.1C2394.45 1064.39 2385.61 1080.81 2377.71 1097.1C2369.23 1118.11 2360.84 1139.98 2359.07 1164.12C2357.12 1197.52 2367.1 1218.84 2390.6 1224.38C2404.75 1227.83 2420.31 1226.6 2433.88 1222.74C2455.56 1217.34 2474.57 1201.06 2491.45 1181.23C2505.01 1166.3 2518.48 1150.46 2533.68 1132.63C2594.97 1125.92 2602.14 1123.47 2623.24 1098.74C2608.85 1091.57 2608.85 1091.57 2598.19 1097.06ZM2415.73 1203.91C2406.66 1205.55 2398.85 1200.65 2397.85 1187.81C2395.99 1175.96 2395.86 1163.03 2397.67 1150.87C2402.16 1126.55 2408.61 1102.96 2421.54 1079.77C2435.24 1089.75 2445.13 1098.19 2455.88 1105.63C2466.54 1112.17 2478.15 1118.61 2489.72 1125.1C2476.7 1158.4 2439.23 1197.43 2415.73 1203.91ZM2508.55 1094.97C2485.64 1085.71 2470.67 1071.24 2461.96 1043.34C2456.97 1027.09 2455.97 1014.3 2462.14 999.005C2475.39 968.424 2492.72 943.059 2517.58 930.899C2530.01 936.39 2533 950.909 2534.14 964.657C2537.86 1011.44 2528.37 1054.63 2508.55 1094.97Z" fill="#FF5E8F"/>
<path d="M2914.72 1063.44C2885.96 1084.22 2862.42 1112.85 2826.21 1133.27C2829.3 1114.57 2830.98 1100.6 2834.61 1088.3C2846.13 1047.69 2858.56 1007.04 2869.18 966.517C2873.58 952.315 2876.98 937.296 2878.48 921.46C2880.16 896.414 2868.36 887.203 2842.64 888.338C2826.03 888.746 2811.65 893.601 2799.58 903.765C2778.9 922.05 2757.3 940.381 2737.66 960.391C2714.66 984.394 2693.7 1010.98 2671.79 1036.71C2667.48 1040.75 2662.22 1043.92 2651.87 1053.09C2658.54 1021.15 2664.89 996.645 2668.48 972.37C2672.79 945.282 2663.8 936.751 2636.36 939.882C2630.87 940.336 2626.6 944.374 2620.3 946.688C2610.91 990.837 2600.61 1035.03 2593.03 1079C2588.13 1109.85 2604.06 1124.28 2634.63 1114.44C2644.57 1111.8 2654.14 1104.59 2662.8 1097.42C2676.51 1084.31 2690.07 1069.38 2702.82 1055.45C2724.73 1029.72 2746.69 1004 2768.69 979.131C2783.12 963.25 2798.63 950.001 2814.06 934.936C2822.72 950.863 2814.42 962.569 2811.61 973.867C2801.22 1017.15 2789.01 1060.58 2778.63 1103.86C2775.22 1118.88 2775.54 1134.54 2775.86 1150.24C2777.04 1164.89 2785.97 1172.47 2800.76 1173.15C2811.83 1173.19 2823.77 1172.24 2833.56 1167.75C2846.86 1161.17 2860.06 1152.73 2871.17 1141.71C2913.14 1101.41 2955.06 1060.21 2996.97 1019.06C2999.51 1016.07 3001.06 1012.25 3006 1004.49C2964.17 1012.44 2941.63 1041.93 2914.72 1063.44Z" fill="#FF5E8F"/>
<path d="M2091.03 1691.11C2101.48 1682.82 2106.25 1678.97 2105.32 1679.59C2135.44 1654.7 2159.1 1634.26 2176.31 1618.28C2193.83 1602.3 2208.58 1585.55 2220.57 1568.03C2232.55 1550.51 2238.55 1533.46 2238.55 1516.86C2238.55 1504.26 2235.63 1494.43 2229.79 1487.36C2223.95 1480.29 2215.19 1476.76 2203.51 1476.76C2191.83 1476.76 2182.62 1481.21 2175.85 1490.12C2169.4 1498.73 2166.17 1511.02 2166.17 1527H2090.11C2090.73 1500.88 2096.26 1479.06 2106.71 1461.54C2117.46 1444.03 2131.45 1431.12 2148.66 1422.82C2166.17 1414.52 2185.53 1410.37 2206.74 1410.37C2243.31 1410.37 2270.82 1419.75 2289.26 1438.49C2308 1457.24 2317.38 1481.67 2317.38 1511.79C2317.38 1544.67 2306.16 1575.25 2283.72 1603.53C2261.29 1631.49 2232.71 1658.84 2197.98 1685.58H2322.45V1749.66H2091.03V1691.11ZM2401.87 1757.96C2388.04 1757.96 2376.67 1753.96 2367.76 1745.97C2359.15 1737.67 2354.85 1727.53 2354.85 1715.54C2354.85 1703.25 2359.15 1692.96 2367.76 1684.66C2376.67 1676.36 2388.04 1672.21 2401.87 1672.21C2415.39 1672.21 2426.45 1676.36 2435.06 1684.66C2443.97 1692.96 2448.43 1703.25 2448.43 1715.54C2448.43 1727.53 2443.97 1737.67 2435.06 1745.97C2426.45 1753.96 2415.39 1757.96 2401.87 1757.96ZM2487.26 1581.4C2487.26 1528.54 2497.4 1486.9 2517.68 1456.47C2538.27 1426.05 2571.31 1410.84 2616.79 1410.84C2662.28 1410.84 2695.16 1426.05 2715.44 1456.47C2736.03 1486.9 2746.33 1528.54 2746.33 1581.4C2746.33 1634.87 2736.03 1676.82 2715.44 1707.25C2695.16 1737.67 2662.28 1752.88 2616.79 1752.88C2571.31 1752.88 2538.27 1737.67 2517.68 1707.25C2497.4 1676.82 2487.26 1634.87 2487.26 1581.4ZM2668.88 1581.4C2668.88 1550.36 2665.5 1526.54 2658.74 1509.95C2651.98 1493.04 2638 1484.59 2616.79 1484.59C2595.59 1484.59 2581.6 1493.04 2574.84 1509.95C2568.08 1526.54 2564.7 1550.36 2564.7 1581.4C2564.7 1602.3 2565.93 1619.66 2568.39 1633.49C2570.85 1647.01 2575.76 1658.08 2583.14 1666.68C2590.82 1674.98 2602.04 1679.13 2616.79 1679.13C2631.54 1679.13 2642.61 1674.98 2649.98 1666.68C2657.67 1658.08 2662.74 1647.01 2665.19 1633.49C2667.65 1619.66 2668.88 1602.3 2668.88 1581.4Z" fill="#8C51FF" fill-opacity="0.529412"/>
<path d="M2072.56 1665.72C2083.01 1657.42 2087.78 1653.58 2086.85 1654.19C2116.97 1629.3 2140.64 1608.86 2157.85 1592.88C2175.36 1576.9 2190.12 1560.15 2202.1 1542.63C2214.09 1525.12 2220.08 1508.06 2220.08 1491.46C2220.08 1478.86 2217.16 1469.03 2211.32 1461.96C2205.48 1454.89 2196.72 1451.36 2185.04 1451.36C2173.37 1451.36 2164.15 1455.81 2157.39 1464.73C2150.93 1473.33 2147.7 1485.62 2147.7 1501.61H2071.64C2072.26 1475.48 2077.79 1453.66 2088.24 1436.15C2098.99 1418.63 2112.98 1405.72 2130.19 1397.42C2147.7 1389.13 2167.07 1384.98 2188.27 1384.98C2224.84 1384.98 2252.35 1394.35 2270.79 1413.1C2289.53 1431.84 2298.91 1456.28 2298.91 1486.39C2298.91 1519.28 2287.69 1549.85 2265.26 1578.13C2242.82 1606.09 2214.24 1633.45 2179.51 1660.18H2303.98V1724.26H2072.56V1665.72ZM2383.4 1732.56C2369.57 1732.56 2358.2 1728.56 2349.29 1720.57C2340.68 1712.27 2336.38 1702.13 2336.38 1690.15C2336.38 1677.85 2340.68 1667.56 2349.29 1659.26C2358.2 1650.96 2369.57 1646.82 2383.4 1646.82C2396.92 1646.82 2407.99 1650.96 2416.59 1659.26C2425.5 1667.56 2429.96 1677.85 2429.96 1690.15C2429.96 1702.13 2425.5 1712.27 2416.59 1720.57C2407.99 1728.56 2396.92 1732.56 2383.4 1732.56ZM2468.79 1556C2468.79 1503.14 2478.93 1461.5 2499.21 1431.07C2519.8 1400.65 2552.84 1385.44 2598.32 1385.44C2643.81 1385.44 2676.69 1400.65 2696.97 1431.07C2717.56 1461.5 2727.86 1503.14 2727.86 1556C2727.86 1609.48 2717.56 1651.42 2696.97 1681.85C2676.69 1712.27 2643.81 1727.49 2598.32 1727.49C2552.84 1727.49 2519.8 1712.27 2499.21 1681.85C2478.93 1651.42 2468.79 1609.48 2468.79 1556ZM2650.41 1556C2650.41 1524.96 2647.03 1501.14 2640.27 1484.55C2633.51 1467.65 2619.53 1459.19 2598.32 1459.19C2577.12 1459.19 2563.13 1467.65 2556.37 1484.55C2549.61 1501.14 2546.23 1524.96 2546.23 1556C2546.23 1576.9 2547.46 1594.26 2549.92 1608.09C2552.38 1621.61 2557.3 1632.68 2564.67 1641.28C2572.35 1649.58 2583.57 1653.73 2598.32 1653.73C2613.07 1653.73 2624.14 1649.58 2631.51 1641.28C2639.2 1632.68 2644.27 1621.61 2646.73 1608.09C2649.18 1594.26 2650.41 1576.9 2650.41 1556Z" fill="#070707"/>
</svg>
