<svg xmlns="http://www.w3.org/2000/svg" xmlns:xlink="http://www.w3.org/1999/xlink" width="500" zoomAndPan="magnify" viewBox="0 0 375 374.999991" height="500" preserveAspectRatio="xMidYMid meet" version="1.0"><defs><g/></defs><g fill="#ffffff" fill-opacity="1"><g transform="translate(95.878124, 196.212381)"><g><path d="M 33.15625 0.195312 L 33.9375 0.0976562 L 35.886719 0.0976562 L 37.15625 0 L 37.742188 -0.0976562 L 39.203125 -0.0976562 L 40.375 -0.390625 L 40.765625 -0.976562 L 40.960938 -1.65625 L 40.960938 -2.4375 L 41.15625 -3.121094 L 41.253906 -3.902344 L 41.542969 -4.386719 L 41.738281 -5.558594 L 41.835938 -6.632812 L 42.03125 -7.3125 L 42.226562 -8.582031 L 42.324219 -9.265625 L 42.617188 -10.628906 L 42.714844 -12.191406 L 42.8125 -13.554688 L 43.007812 -14.140625 L 43.300781 -15.214844 L 43.59375 -16.578125 L 43.691406 -17.261719 L 43.691406 -18.042969 L 43.984375 -19.40625 L 44.082031 -20.089844 L 44.273438 -20.675781 L 44.46875 -21.359375 L 44.371094 -21.941406 L 44.957031 -23.992188 L 44.859375 -24.574219 L 45.054688 -25.257812 L 45.347656 -26.625 L 45.542969 -27.695312 L 45.542969 -28.28125 L 45.933594 -30.035156 L 46.03125 -30.71875 L 46.519531 -31.988281 L 46.617188 -32.671875 L 46.617188 -33.9375 L 46.714844 -34.621094 L 47.003906 -35.207031 L 46.8125 -35.886719 L 46.8125 -36.667969 L 47.199219 -37.253906 L 47.296875 -37.9375 L 47.589844 -39.300781 L 47.6875 -39.886719 L 47.785156 -41.347656 L 48.273438 -42.714844 L 48.371094 -44.175781 L 48.566406 -45.738281 L 48.761719 -47.003906 L 48.859375 -47.589844 L 49.347656 -48.761719 L 49.445312 -49.347656 L 49.640625 -50.613281 L 49.738281 -51.394531 L 49.929688 -52.078125 L 50.027344 -52.757812 L 50.320312 -54.027344 L 50.417969 -54.710938 L 50.613281 -55.976562 L 50.613281 -56.660156 L 50.710938 -57.929688 L 50.90625 -58.707031 L 51.101562 -59.390625 L 51.199219 -60.074219 L 51.199219 -60.855469 L 51.296875 -62.21875 L 51.6875 -63.390625 L 51.6875 -64.074219 L 51.785156 -64.65625 L 51.6875 -65.046875 L 52.078125 -65.632812 L 51.980469 -66.316406 L 52.078125 -66.902344 L 51.394531 -67.777344 L 50.710938 -68.070312 L 49.152344 -68.265625 L 46.421875 -68.265625 L 44.46875 -68.363281 L 40.960938 -68.363281 L 40.082031 -68.265625 L 39.496094 -68.167969 L 38.714844 -67.289062 L 38.617188 -66.707031 L 38.714844 -66.023438 L 38.519531 -65.339844 L 38.132812 -64.460938 L 38.035156 -63.878906 L 37.839844 -62.609375 L 37.644531 -62.023438 L 37.351562 -60.757812 L 37.351562 -59.976562 L 36.960938 -58.609375 L 36.863281 -57.929688 L 36.960938 -57.148438 L 36.960938 -55.976562 L 36.570312 -55.101562 L 36.472656 -53.832031 L 36.179688 -52.566406 L 36.179688 -51.882812 L 35.984375 -51.296875 L 35.886719 -50.613281 L 35.789062 -49.835938 L 35.691406 -49.152344 L 35.597656 -48.566406 L 35.109375 -47.296875 L 35.304688 -46.714844 L 34.816406 -45.25 L 34.71875 -44.566406 L 34.71875 -43.886719 L 34.328125 -43.007812 L 34.132812 -41.933594 L 34.035156 -41.445312 L 31.988281 -41.542969 L 31.207031 -41.445312 L 30.035156 -41.542969 L 29.257812 -41.445312 L 26.429688 -41.542969 L 25.648438 -41.542969 L 24.964844 -41.640625 L 25.160156 -42.421875 L 25.257812 -43.007812 L 25.453125 -43.789062 L 25.355469 -44.371094 L 25.550781 -45.054688 L 25.84375 -46.324219 L 25.746094 -47.003906 L 26.039062 -47.589844 L 26.136719 -48.273438 L 26.332031 -49.054688 L 26.527344 -49.542969 L 26.527344 -50.125 L 26.625 -51.296875 L 26.820312 -51.785156 L 26.917969 -53.050781 L 27.109375 -53.832031 L 27.304688 -54.515625 L 27.304688 -56.074219 L 27.597656 -56.757812 L 27.695312 -57.929688 L 27.890625 -59.292969 L 28.28125 -61.148438 L 28.378906 -62.023438 L 28.671875 -62.902344 L 28.769531 -64.265625 L 28.867188 -64.851562 L 29.160156 -66.023438 L 29.0625 -66.707031 L 29.0625 -67.289062 L 28.867188 -68.167969 L 27.890625 -68.363281 L 26.722656 -68.558594 L 25.746094 -68.265625 L 23.601562 -68.265625 L 22.234375 -68.363281 L 18.238281 -68.265625 L 15.796875 -68.265625 L 14.921875 -67.777344 L 14.824219 -66.707031 L 14.726562 -65.535156 L 14.433594 -64.265625 L 14.238281 -63.585938 L 14.335938 -62.804688 L 14.042969 -62.121094 L 13.945312 -61.4375 L 13.75 -60.757812 L 13.847656 -59.390625 L 13.164062 -58.125 L 13.164062 -56.074219 L 12.871094 -54.808594 L 12.777344 -54.222656 L 12.679688 -53.441406 L 12.289062 -52.664062 L 12.289062 -51.296875 L 12.191406 -50.808594 L 11.898438 -48.761719 L 11.703125 -47.980469 L 11.507812 -46.714844 L 11.117188 -44.664062 L 11.019531 -43.300781 L 10.921875 -42.617188 L 10.335938 -41.253906 L 10.238281 -39.886719 L 10.042969 -38.519531 L 9.949219 -37.9375 L 9.460938 -35.109375 L 9.070312 -33.742188 L 9.070312 -32.960938 L 8.777344 -32.183594 L 8.484375 -31.5 L 8.289062 -30.035156 L 8.289062 -29.355469 L 8.09375 -28.183594 L 7.800781 -27.207031 L 7.703125 -25.941406 L 7.3125 -24.574219 L 7.410156 -23.894531 L 7.214844 -23.113281 L 7.121094 -22.527344 L 6.925781 -21.941406 L 6.4375 -18.527344 L 6.242188 -17.75 L 5.949219 -16.382812 L 5.949219 -15.605469 L 5.851562 -14.921875 L 5.460938 -14.042969 L 5.070312 -13.359375 L 5.167969 -11.996094 L 4.777344 -10.628906 L 4.875 -9.851562 L 4.679688 -9.167969 L 4.097656 -8.09375 L 4.289062 -7.410156 L 4.097656 -6.828125 L 4.097656 -6.144531 L 3.902344 -5.265625 L 3.804688 -4.289062 L 3.316406 -3.023438 L 2.925781 -2.144531 L 2.925781 -1.367188 L 3.316406 -0.292969 L 5.265625 -0.0976562 L 8.386719 -0.0976562 L 9.558594 0.0976562 L 10.238281 -0.0976562 L 10.921875 -0.195312 L 11.605469 0.0976562 L 12.386719 0.0976562 L 13.847656 -0.0976562 L 15.019531 -0.195312 L 15.894531 -0.292969 L 16.675781 -0.683594 L 17.164062 -1.65625 L 17.359375 -3.121094 L 17.457031 -3.804688 L 17.652344 -4.582031 L 17.847656 -5.949219 L 17.847656 -6.632812 L 18.140625 -7.996094 L 18.238281 -8.777344 L 18.820312 -11.507812 L 19.015625 -12.96875 L 19.40625 -14.238281 L 19.503906 -14.726562 L 19.992188 -15.894531 L 19.894531 -16.480469 L 20.480469 -18.625 L 20.96875 -20.871094 L 21.164062 -21.550781 L 21.164062 -23.210938 L 21.550781 -23.894531 L 21.746094 -25.160156 L 22.136719 -26.527344 L 22.234375 -27.304688 L 22.332031 -27.792969 L 23.992188 -27.695312 L 25.453125 -27.402344 L 28.574219 -27.695312 L 29.453125 -27.5 L 30.132812 -27.5 L 31.011719 -27.597656 L 30.816406 -26.429688 L 30.816406 -25.746094 L 30.621094 -24.378906 L 30.425781 -23.699219 L 30.132812 -22.332031 L 30.132812 -21.164062 L 29.9375 -20.1875 L 29.550781 -19.113281 L 28.964844 -16.1875 L 28.769531 -14.335938 L 28.476562 -12.871094 L 28.378906 -11.507812 L 28.183594 -11.019531 L 28.085938 -9.753906 L 27.988281 -9.070312 L 27.988281 -8.386719 L 27.890625 -7.703125 L 27.5 -5.65625 L 27.5 -4.289062 L 27.109375 -3.609375 L 26.917969 -2.730469 L 26.820312 -1.851562 L 26.722656 -1.074219 L 27.304688 -0.195312 L 27.988281 -0.0976562 L 28.671875 -0.0976562 L 29.746094 0 L 32.378906 0 Z M 33.15625 0.195312 "/></g></g></g><g fill="#ffffff" fill-opacity="1"><g transform="translate(144.926514, 196.212381)"><g><path d="M 7.898438 0.195312 L 8.679688 0.0976562 L 11.410156 0.195312 L 11.996094 -0.195312 L 12.386719 -0.878906 L 12.679688 -1.367188 L 12.96875 -2.4375 L 13.554688 -3.902344 L 14.53125 -5.753906 L 14.921875 -6.925781 L 15.214844 -7.605469 L 15.410156 -8.289062 L 16.089844 -9.558594 L 16.578125 -10.628906 L 19.210938 -10.628906 L 23.503906 -10.53125 L 25.0625 -10.335938 L 27.207031 -10.238281 L 27.304688 -9.460938 L 27.304688 -4.875 L 27.207031 -3.902344 L 27.304688 -2.925781 L 27.402344 -1.171875 L 27.597656 -0.195312 L 27.988281 0.0976562 L 29.453125 0.0976562 L 30.71875 0.195312 L 31.695312 0.0976562 L 32.378906 0 L 33.546875 0.0976562 L 34.328125 0.0976562 L 36.472656 0 L 37.839844 0 L 38.617188 0.0976562 L 39.300781 0 C 39.691406 0 39.984375 0.0976562 40.375 0 C 40.863281 -0.292969 40.765625 -1.171875 40.667969 -1.558594 L 40.667969 -3.609375 L 40.570312 -5.753906 L 40.570312 -6.632812 L 40.472656 -7.410156 L 40.570312 -8.777344 L 40.570312 -10.238281 L 40.472656 -10.921875 L 40.375 -12.191406 L 40.375 -12.777344 L 40.179688 -16.480469 L 40.277344 -17.164062 L 40.179688 -18.527344 L 40.277344 -19.992188 L 40.179688 -21.453125 L 40.179688 -22.136719 L 40.082031 -26.625 L 40.082031 -29.550781 L 39.984375 -30.328125 L 39.886719 -31.5 L 39.886719 -35.304688 L 39.691406 -36.375 L 39.59375 -37.9375 L 39.59375 -38.519531 L 39.496094 -39.789062 L 39.59375 -40.375 L 39.496094 -41.738281 L 39.496094 -43.691406 L 39.300781 -45.054688 L 39.300781 -47.199219 L 39.398438 -47.882812 L 39.300781 -49.347656 L 39.300781 -50.710938 L 39.105469 -52.664062 L 39.007812 -53.929688 L 39.007812 -55.296875 L 38.910156 -58.804688 L 38.910156 -60.5625 L 38.714844 -61.148438 L 38.714844 -63.292969 L 38.425781 -67.484375 L 37.742188 -67.972656 L 37.253906 -68.167969 L 35.691406 -68.167969 L 34.816406 -68.070312 L 34.132812 -68.265625 L 33.253906 -68.265625 L 31.402344 -68.167969 L 29.84375 -68.167969 L 28.867188 -68.070312 L 27.015625 -68.167969 L 26.039062 -68.167969 L 25.355469 -68.070312 L 24.964844 -66.996094 L 24.671875 -66.414062 L 24.378906 -65.730469 L 23.503906 -63.976562 L 22.820312 -62.707031 L 22.234375 -60.953125 L 22.039062 -60.464844 L 21.648438 -59.878906 L 21.066406 -58.804688 L 20.871094 -58.125 L 20.675781 -57.539062 L 20.382812 -56.953125 L 20.1875 -56.269531 L 19.308594 -54.515625 L 19.015625 -53.832031 L 18.722656 -52.855469 L 18.140625 -51.980469 L 17.847656 -51.394531 L 17.359375 -50.125 L 16.578125 -48.078125 L 16.1875 -47.492188 L 15.699219 -46.8125 L 15.410156 -45.445312 L 14.824219 -44.175781 L 14.628906 -43.691406 L 14.335938 -42.421875 L 13.847656 -41.738281 L 13.554688 -40.472656 L 13.261719 -39.886719 L 12.679688 -38.8125 L 12.191406 -37.15625 L 11.507812 -35.886719 L 11.214844 -35.109375 L 10.433594 -32.378906 L 10.140625 -31.792969 L 9.65625 -30.425781 L 9.363281 -29.84375 L 9.070312 -29.160156 L 8.972656 -28.574219 L 8.386719 -27.207031 L 8.191406 -26.527344 L 7.605469 -25.355469 L 7.121094 -24.574219 L 6.925781 -23.699219 L 6.730469 -23.015625 L 6.046875 -21.648438 L 5.753906 -20.96875 L 5.265625 -19.699219 L 4.972656 -19.113281 L 4.875 -18.433594 L 4.679688 -17.847656 L 4.195312 -16.675781 L 3.707031 -15.992188 L 3.511719 -15.410156 L 2.730469 -13.652344 L 2.339844 -12.386719 L 1.269531 -10.042969 L 0.78125 -8.875 L 0.195312 -7.703125 L -0.78125 -4.777344 L -1.558594 -3.511719 L -2.144531 -2.339844 L -2.242188 -1.753906 L -2.4375 -1.074219 L -2.242188 -0.292969 L -1.367188 -0.0976562 L 5.753906 0 L 6.4375 0.0976562 Z M 23.992188 -23.308594 L 23.113281 -23.40625 L 22.039062 -23.503906 L 21.261719 -23.503906 L 20.578125 -24.089844 L 20.871094 -24.769531 L 21.066406 -25.648438 L 21.261719 -26.332031 L 21.746094 -27.988281 L 22.136719 -28.671875 L 22.625 -30.132812 L 22.722656 -30.816406 L 23.308594 -32.960938 L 23.601562 -33.839844 L 23.894531 -34.523438 L 24.1875 -35.402344 L 24.574219 -36.082031 L 24.671875 -36.765625 L 25.0625 -37.742188 L 25.453125 -38.519531 L 25.941406 -40.082031 L 26.234375 -41.058594 L 26.722656 -42.617188 L 27.109375 -43.886719 L 27.890625 -44.175781 L 27.988281 -41.933594 L 27.890625 -38.425781 L 27.792969 -34.71875 L 27.890625 -32.378906 L 27.695312 -31.597656 L 27.695312 -29.9375 L 27.597656 -29.257812 L 27.597656 -26.722656 L 27.5 -25.941406 L 27.597656 -25.160156 L 27.5 -23.796875 L 26.917969 -23.308594 Z M 23.992188 -23.308594 "/></g></g></g><g fill="#ffffff" fill-opacity="1"><g transform="translate(188.416738, 196.212381)"><g><path d="M 21.359375 1.171875 L 22.332031 0.976562 L 23.601562 0.878906 L 25.0625 0.878906 L 26.332031 0.585938 L 27.5 0.390625 L 28.671875 0.0976562 L 31.207031 -0.488281 L 31.890625 -0.78125 L 33.449219 -1.753906 L 34.914062 -3.023438 L 36.375 -4.777344 L 36.570312 -5.363281 L 36.863281 -5.949219 L 37.351562 -6.535156 L 37.742188 -7.121094 L 38.035156 -7.800781 L 38.519531 -8.972656 L 39.105469 -10.53125 L 39.398438 -11.117188 L 39.59375 -11.800781 L 39.691406 -12.484375 L 39.984375 -13.652344 L 40.570312 -16.089844 L 40.765625 -16.675781 L 41.058594 -18.722656 L 41.15625 -19.113281 L 41.253906 -19.796875 L 41.445312 -20.285156 L 41.542969 -21.359375 L 41.738281 -22.625 L 41.738281 -23.308594 L 41.933594 -23.894531 L 41.933594 -24.964844 L 41.542969 -25.648438 L 40.863281 -26.332031 L 39.691406 -26.429688 L 34.914062 -26.722656 L 32.863281 -26.722656 L 30.328125 -26.820312 L 29.550781 -26.722656 L 28.867188 -25.941406 L 28.671875 -24.964844 L 28.183594 -23.699219 L 28.085938 -23.015625 L 27.890625 -22.136719 L 27.597656 -20.675781 L 27.304688 -19.503906 L 27.207031 -19.015625 L 27.109375 -18.433594 L 26.722656 -17.164062 L 26.234375 -15.796875 L 25.453125 -14.042969 L 25.0625 -13.554688 L 23.699219 -12.679688 L 22.234375 -12.679688 L 20.675781 -12.484375 L 19.210938 -12.96875 L 18.433594 -13.652344 L 18.042969 -15.117188 L 18.042969 -15.796875 L 17.945312 -16.382812 L 17.945312 -17.359375 L 18.042969 -18.722656 L 18.335938 -20.089844 L 18.335938 -20.871094 L 18.625 -22.917969 L 18.527344 -23.601562 L 18.722656 -24.28125 L 18.820312 -24.964844 L 18.820312 -25.746094 L 18.917969 -26.429688 L 19.210938 -27.109375 L 19.210938 -29.160156 L 19.503906 -30.621094 L 19.699219 -31.402344 L 19.894531 -32.671875 L 19.992188 -33.351562 L 20.382812 -34.914062 L 20.480469 -35.691406 L 21.261719 -39.59375 L 21.746094 -41.058594 L 21.941406 -42.421875 L 22.136719 -43.105469 L 22.234375 -43.691406 L 22.332031 -44.371094 L 22.625 -45.25 L 22.917969 -46.421875 L 23.210938 -47.882812 L 23.601562 -49.054688 L 23.601562 -49.640625 L 24.1875 -51.296875 L 24.671875 -52.566406 L 25.0625 -54.222656 L 25.355469 -54.90625 L 25.648438 -55.492188 L 26.527344 -56.5625 L 27.597656 -56.953125 L 28.769531 -57.148438 L 29.84375 -57.148438 L 31.207031 -56.757812 L 32.28125 -56.171875 L 32.863281 -54.417969 L 32.863281 -52.953125 L 32.671875 -51.589844 L 32.574219 -50.320312 L 31.988281 -48.175781 L 31.792969 -46.8125 L 31.402344 -45.054688 L 31.207031 -44.371094 L 31.207031 -43.007812 L 31.890625 -41.933594 L 34.71875 -41.542969 L 40.863281 -41.445312 L 42.226562 -41.542969 L 43.398438 -41.640625 L 43.789062 -42.03125 L 44.273438 -44.566406 L 44.46875 -45.347656 L 45.054688 -49.152344 L 45.25 -50.710938 L 45.445312 -52.175781 L 45.640625 -52.953125 L 45.738281 -53.929688 L 45.738281 -56.074219 L 45.640625 -57.539062 L 45.542969 -58.414062 L 45.445312 -59.683594 L 45.347656 -60.855469 L 45.152344 -61.925781 L 44.664062 -62.902344 L 44.46875 -63.585938 L 44.175781 -64.074219 L 43.691406 -64.949219 L 43.496094 -65.4375 L 42.421875 -66.414062 L 41.15625 -67.386719 L 39.789062 -67.875 L 38.714844 -68.070312 L 38.328125 -68.363281 L 37.644531 -68.460938 L 36.960938 -68.65625 L 36.375 -68.753906 L 35.011719 -68.949219 L 34.035156 -68.949219 L 33.15625 -69.242188 L 30.71875 -69.535156 L 29.160156 -69.535156 L 27.304688 -69.4375 L 25.84375 -69.4375 L 25.160156 -69.339844 L 23.894531 -69.046875 L 22.234375 -68.753906 L 20.1875 -67.875 L 19.601562 -67.582031 L 18.335938 -66.996094 L 17.75 -66.511719 L 16.382812 -65.144531 L 15.605469 -64.167969 L 14.921875 -63.195312 L 14.238281 -62.609375 L 13.847656 -61.535156 L 13.261719 -60.171875 L 12.777344 -59 L 12.191406 -57.34375 L 11.800781 -55.976562 L 11.214844 -54.027344 L 10.53125 -52.078125 L 10.238281 -50.808594 L 9.949219 -50.125 L 9.851562 -49.445312 L 9.753906 -48.859375 L 9.558594 -48.175781 L 9.460938 -47.492188 L 9.167969 -46.910156 L 9.070312 -45.933594 L 8.875 -44.859375 L 8.679688 -44.175781 L 8.191406 -42.226562 L 8.191406 -40.863281 L 7.898438 -40.277344 L 7.898438 -39.691406 L 7.800781 -38.519531 L 7.507812 -37.546875 L 7.3125 -36.472656 L 7.023438 -35.402344 L 7.023438 -35.011719 L 6.925781 -34.71875 L 6.925781 -33.351562 L 6.535156 -32.765625 L 6.242188 -31.011719 L 6.339844 -30.523438 L 6.046875 -29.453125 L 5.851562 -28.671875 L 5.949219 -27.792969 L 5.558594 -26.429688 L 5.363281 -24.378906 L 5.265625 -23.796875 L 5.265625 -23.113281 L 5.070312 -21.746094 L 4.972656 -20.382812 L 4.875 -19.601562 L 4.777344 -17.554688 L 4.777344 -15.019531 L 4.679688 -14.335938 L 4.679688 -13.457031 L 4.777344 -12.679688 L 4.777344 -10.824219 L 4.972656 -10.140625 L 5.167969 -8.875 L 5.363281 -8.289062 L 5.65625 -7.023438 L 6.535156 -5.753906 L 7.214844 -4.386719 L 7.703125 -3.902344 L 8.09375 -3.414062 L 9.363281 -2.4375 L 9.949219 -2.046875 L 10.433594 -1.65625 L 11.410156 -1.074219 L 11.996094 -0.585938 L 13.164062 -0.195312 L 14.433594 0.292969 L 15.019531 0.390625 L 15.699219 0.585938 L 16.675781 0.683594 L 17.261719 0.78125 L 18.042969 0.878906 L 19.113281 0.976562 L 19.796875 1.074219 L 20.480469 1.074219 Z M 21.359375 1.171875 "/></g></g></g><g fill="#ffffff" fill-opacity="1"><g transform="translate(230.931845, 196.212381)"><g><path d="M 4.289062 0 L 5.265625 -0.0976562 L 6.144531 0 L 7.996094 0 L 8.679688 -0.0976562 L 8.972656 0 L 9.558594 0 L 10.921875 -0.0976562 L 12.09375 0 L 12.96875 -0.0976562 L 15.507812 -0.0976562 L 16.578125 -0.488281 L 17.066406 -2.4375 L 17.066406 -3.609375 L 17.457031 -4.679688 L 17.847656 -6.046875 L 17.945312 -7.3125 L 18.042969 -7.996094 L 18.238281 -8.582031 L 18.527344 -9.753906 L 18.820312 -11.3125 L 19.015625 -13.359375 L 19.210938 -13.945312 L 19.503906 -14.628906 L 19.601562 -15.894531 L 19.699219 -16.675781 L 19.796875 -18.042969 L 19.992188 -18.820312 L 20.285156 -20.1875 L 20.285156 -20.773438 L 20.382812 -21.453125 L 20.578125 -22.625 L 20.773438 -23.894531 L 20.96875 -25.941406 L 21.164062 -26.527344 L 21.261719 -27.207031 L 21.453125 -27.988281 L 21.550781 -28.574219 L 21.84375 -28.574219 L 22.429688 -27.109375 L 23.308594 -24.574219 L 23.601562 -23.796875 L 23.894531 -22.917969 L 23.992188 -22.136719 L 24.476562 -21.066406 L 24.476562 -20.382812 L 24.964844 -19.308594 L 25.257812 -18.625 L 25.355469 -18.042969 L 25.550781 -16.773438 L 26.136719 -15.507812 L 26.527344 -14.335938 L 26.917969 -12.96875 L 27.402344 -11.605469 L 27.597656 -11.019531 L 27.792969 -10.335938 L 28.085938 -9.070312 L 28.476562 -8.289062 L 28.867188 -7.121094 L 29.648438 -4.386719 L 30.523438 -2.046875 L 30.816406 -0.78125 L 31.207031 -0.195312 L 32.378906 0 L 34.523438 -0.0976562 L 35.207031 0 L 37.253906 0 L 38.132812 -0.0976562 L 41.15625 0 L 43.59375 0 L 45.835938 -0.0976562 L 45.933594 -0.976562 L 45.738281 -1.460938 L 45.152344 -3.121094 L 44.761719 -4.195312 L 44.082031 -5.363281 L 43.789062 -6.4375 L 43.691406 -7.214844 L 43.398438 -7.703125 L 43.105469 -8.386719 L 43.105469 -9.167969 L 42.8125 -9.753906 L 42.714844 -10.433594 L 42.617188 -11.3125 L 41.835938 -12.484375 L 41.835938 -13.066406 L 41.445312 -14.335938 L 41.058594 -15.019531 L 41.058594 -15.605469 L 40.960938 -16.285156 L 40.179688 -17.457031 L 39.984375 -18.140625 L 39.59375 -19.308594 L 39.105469 -20.382812 L 39.007812 -21.066406 L 38.617188 -21.941406 L 38.519531 -22.527344 L 38.230469 -23.308594 L 38.132812 -24.089844 L 37.742188 -24.964844 L 37.253906 -26.039062 L 36.863281 -27.304688 L 36.667969 -28.085938 L 35.886719 -30.816406 L 35.597656 -31.988281 L 35.109375 -33.15625 L 34.914062 -34.132812 L 34.425781 -35.691406 L 34.230469 -36.667969 L 35.207031 -38.617188 L 36.960938 -40.960938 L 37.644531 -42.03125 L 38.132812 -42.910156 L 38.8125 -43.789062 L 39.886719 -45.445312 L 40.765625 -46.617188 L 41.445312 -47.589844 L 42.910156 -49.738281 L 43.496094 -50.515625 L 44.082031 -51.394531 L 45.054688 -52.566406 L 45.542969 -53.246094 L 46.128906 -53.929688 L 46.519531 -54.90625 L 47.296875 -55.78125 L 47.6875 -56.5625 L 48.273438 -57.148438 L 48.664062 -57.734375 L 49.445312 -58.609375 L 49.929688 -59.585938 L 50.320312 -60.269531 L 51.003906 -61.242188 L 51.394531 -61.730469 L 51.492188 -62.316406 L 51.980469 -62.804688 L 52.46875 -63.488281 L 53.34375 -64.558594 L 54.125 -65.535156 L 54.417969 -66.21875 L 55.199219 -67.386719 L 54.90625 -68.070312 L 53.734375 -68.363281 L 52.855469 -68.265625 L 50.90625 -68.460938 L 49.542969 -68.265625 L 47.6875 -68.265625 L 47.199219 -68.167969 L 46.226562 -68.265625 L 43.203125 -68.265625 L 41.445312 -68.363281 L 40.472656 -68.070312 L 39.691406 -66.996094 L 39.398438 -66.21875 L 38.8125 -65.632812 L 37.742188 -64.167969 L 36.863281 -62.902344 L 35.789062 -61.4375 L 35.207031 -60.660156 L 35.011719 -59.976562 L 34.132812 -58.902344 L 33.15625 -57.441406 L 32.671875 -56.5625 L 31.890625 -55.683594 L 31.207031 -54.710938 L 30.425781 -53.734375 L 30.230469 -53.246094 L 29.746094 -52.273438 L 28.964844 -51.589844 L 28.378906 -50.808594 L 27.792969 -49.929688 L 26.722656 -48.664062 L 26.136719 -47.492188 L 25.160156 -46.519531 L 24.964844 -47.199219 L 25.257812 -48.957031 L 25.550781 -50.125 L 26.039062 -52.757812 L 26.234375 -53.34375 L 26.234375 -54.027344 L 26.429688 -54.710938 L 26.527344 -55.683594 L 26.722656 -56.5625 L 26.917969 -57.34375 L 27.109375 -59.292969 L 27.207031 -59.976562 L 27.5 -61.4375 L 27.792969 -63.097656 L 27.890625 -64.460938 L 28.085938 -66.121094 L 28.28125 -67.09375 L 27.988281 -67.777344 L 27.207031 -68.167969 L 25.746094 -68.167969 L 24.28125 -68.265625 L 23.601562 -68.265625 L 21.746094 -68.167969 L 20.382812 -68.265625 L 17.945312 -68.265625 L 16.578125 -68.363281 L 15.894531 -68.167969 L 15.019531 -68.167969 L 14.628906 -67.875 L 14.335938 -66.996094 L 14.042969 -65.144531 L 13.847656 -63.976562 L 13.847656 -62.707031 L 13.554688 -61.632812 L 13.554688 -60.367188 L 13.164062 -59.097656 L 12.777344 -56.5625 L 12.679688 -55.78125 L 12.484375 -55.199219 L 12.386719 -53.832031 L 12.386719 -53.246094 L 12.191406 -52.566406 L 12.191406 -51.980469 L 11.996094 -51.296875 L 11.703125 -50.125 L 11.800781 -49.445312 L 11.605469 -48.078125 L 11.3125 -47.492188 L 11.214844 -46.226562 L 11.019531 -45.542969 L 11.019531 -44.957031 L 10.726562 -44.371094 L 10.628906 -43.007812 L 10.53125 -41.933594 L 10.238281 -40.570312 L 9.949219 -39.007812 L 9.851562 -38.328125 L 9.753906 -37.546875 L 9.460938 -36.179688 L 9.070312 -34.230469 L 8.875 -32.765625 L 8.777344 -32.085938 L 8.679688 -30.71875 L 8.289062 -29.257812 L 7.996094 -27.792969 L 7.800781 -27.015625 L 7.507812 -25.648438 L 7.121094 -22.917969 L 6.925781 -21.453125 L 6.632812 -20.089844 L 6.144531 -18.042969 L 6.144531 -17.359375 L 5.753906 -16.089844 L 5.753906 -15.507812 L 5.558594 -14.921875 L 5.460938 -13.554688 L 5.167969 -12.871094 L 4.972656 -11.117188 L 4.972656 -10.628906 L 4.679688 -9.363281 L 4.679688 -8.679688 L 4.582031 -7.898438 L 4.582031 -7.214844 L 4.195312 -5.949219 L 4.097656 -5.363281 L 3.804688 -4.097656 L 3.902344 -3.414062 L 3.609375 -2.730469 L 3.609375 -2.046875 L 3.511719 -0.585938 Z M 4.289062 0 "/></g></g></g><g fill="#ffffff" fill-opacity="0.5294"><g transform="translate(65.210726, 248.036284)"><g><path d="M 36.191406 -44.203125 C 35.449219 -42.554688 34.707031 -40.90625 33.796875 -39.402344 C 30.433594 -33.730469 26.308594 -28.714844 22.007812 -23.84375 C 14.945312 -15.8125 7.953125 -7.863281 1.046875 0.15625 C -0.699219 2.199219 -2.355469 4.320312 -3.851562 6.503906 C -4.628906 7.679688 -5.15625 9.070312 -5.519531 10.449219 C -6.148438 12.566406 -5.242188 13.925781 -3.273438 14.71875 C -1.472656 15.371094 0.347656 15.304688 2.078125 15.085938 C 5.316406 14.828125 8.246094 13.722656 11.078125 12.382812 C 24.332031 6.238281 37.410156 -0.128906 50.183594 -7.265625 C 52.089844 -8.289062 53.894531 -9.546875 55.707031 -10.722656 C 56.164062 -11 56.441406 -11.496094 56.871094 -12.089844 C 54.609375 -12.542969 54.617188 -12.464844 52.625 -11.511719 C 38.699219 -4.839844 24.773438 1.835938 10.84375 8.429688 C 8.46875 9.570312 5.929688 10.570312 3.460938 11.480469 C 2.839844 11.691406 2.117188 11.589844 1.40625 11.644531 C 0.695312 9.714844 1.523438 8.140625 2.449219 6.796875 C 4.15625 4.277344 5.867188 1.835938 7.820312 -0.546875 C 14.199219 -8.203125 20.660156 -15.871094 27.117188 -23.535156 C 29.878906 -26.773438 32.730469 -29.863281 35.242188 -33.242188 C 37.691406 -36.375 39.964844 -39.734375 41.917969 -43.148438 C 44.226562 -47.066406 42.386719 -49.222656 38.210938 -49.765625 C 37.808594 -49.8125 37.496094 -49.785156 37.101562 -49.753906 C 34.976562 -49.507812 32.757812 -49.410156 30.65625 -48.84375 C 25.457031 -47.316406 20.347656 -45.636719 15.152344 -44.03125 C 14.535156 -43.824219 13.816406 -43.84375 12.957031 -43.695312 C 13.585938 -45.734375 14.761719 -46.9375 15.9375 -48.144531 C 21.949219 -54.425781 28.394531 -60.261719 35.371094 -65.425781 C 37.921875 -67.300781 40.65625 -68.867188 43.394531 -70.4375 C 44.84375 -71.1875 46.285156 -72.019531 48.1875 -72.089844 C 49.996094 -68.34375 48.136719 -64.777344 47.792969 -61.097656 C 48.265625 -61.132812 48.746094 -61.09375 48.976562 -61.191406 C 51.898438 -63.410156 53.558594 -66.480469 54.316406 -69.957031 C 54.882812 -72.785156 53.382812 -74.652344 50.351562 -74.804688 C 48.195312 -74.953125 45.984375 -74.773438 44.003906 -73.742188 C 40.953125 -72.148438 37.738281 -70.621094 34.785156 -68.796875 C 26.320312 -63.355469 18.644531 -57.019531 11.425781 -49.929688 C 10.25 -48.722656 9.074219 -47.515625 8.070312 -46.167969 C 7.132812 -44.980469 5.808594 -43.679688 6.734375 -42.007812 C 7.65625 -40.414062 9.332031 -40.308594 10.917969 -40.355469 C 13.207031 -40.539062 15.492188 -40.800781 17.753906 -41.300781 C 21.019531 -42.195312 24.1875 -43.320312 27.445312 -44.296875 C 30.160156 -45.148438 32.957031 -45.929688 36.292969 -46.910156 C 36.242188 -45.554688 36.464844 -44.777344 36.191406 -44.203125 Z M 36.191406 -44.203125 "/></g></g></g><g fill="#ffffff" fill-opacity="0.5294"><g transform="translate(127.330513, 243.075983)"><g><path d="M 26.613281 -10.945312 C 24.136719 -9.15625 22.109375 -6.691406 18.992188 -4.933594 C 19.257812 -6.542969 19.402344 -7.746094 19.714844 -8.804688 C 20.707031 -12.300781 21.777344 -15.800781 22.691406 -19.289062 C 23.070312 -20.511719 23.363281 -21.804688 23.492188 -23.167969 C 23.636719 -25.324219 22.621094 -26.117188 20.40625 -26.019531 C 18.976562 -25.984375 17.738281 -25.566406 16.699219 -24.691406 C 14.917969 -23.117188 13.058594 -21.539062 11.367188 -19.816406 C 9.386719 -17.75 7.582031 -15.460938 5.695312 -13.246094 C 5.324219 -12.898438 4.871094 -12.625 3.980469 -11.835938 C 4.554688 -14.585938 5.101562 -16.695312 5.410156 -18.785156 C 5.78125 -21.117188 5.007812 -21.851562 2.644531 -21.582031 C 2.171875 -21.542969 1.804688 -21.195312 1.261719 -20.996094 C 0.453125 -17.195312 -0.433594 -13.390625 -1.085938 -9.605469 C -1.507812 -6.949219 -0.136719 -5.707031 2.496094 -6.554688 C 3.351562 -6.78125 4.175781 -7.402344 4.921875 -8.019531 C 6.101562 -9.148438 7.269531 -10.433594 8.367188 -11.632812 C 10.253906 -13.847656 12.144531 -16.0625 14.039062 -18.203125 C 15.28125 -19.570312 16.617188 -20.710938 17.945312 -22.007812 C 18.691406 -20.636719 17.976562 -19.628906 17.734375 -18.65625 C 16.839844 -14.929688 15.789062 -11.191406 14.894531 -7.464844 C 14.601562 -6.171875 14.628906 -4.824219 14.65625 -3.472656 C 14.757812 -2.210938 15.527344 -1.558594 16.800781 -1.5 C 17.753906 -1.496094 18.78125 -1.578125 19.625 -1.964844 C 20.769531 -2.53125 21.90625 -3.257812 22.863281 -4.207031 C 26.476562 -7.675781 30.085938 -11.222656 33.695312 -14.765625 C 33.914062 -15.023438 34.046875 -15.351562 34.472656 -16.019531 C 30.871094 -15.335938 28.929688 -12.796875 26.613281 -10.945312 Z M 26.613281 -10.945312 "/></g></g></g><g fill="#ffffff" fill-opacity="0.5294"><g transform="translate(158.982402, 240.548561)"><g><path d="M 29.753906 -21.363281 C 27.4375 -19.511719 25.015625 -18.046875 22.136719 -17.257812 C 20.1875 -16.785156 18.28125 -16.792969 16.703125 -18.652344 C 17.800781 -21.839844 18.914062 -24.789062 19.949219 -27.730469 C 20.277344 -28.628906 20.582031 -29.765625 19.652344 -30.488281 C 18.726562 -31.128906 17.613281 -31.117188 16.539062 -30.636719 C 16 -30.433594 15.386719 -30.148438 15.023438 -29.71875 C 12.179688 -26.554688 10.484375 -22.921875 11.074219 -18.519531 C 11.222656 -17.660156 11.285156 -16.871094 10.945312 -16.128906 C 8.675781 -11.734375 6.410156 -7.265625 4.132812 -2.953125 C 3.863281 -2.375 3.53125 -1.554688 2.230469 -1.925781 C 2.222656 -3.992188 2.132812 -6.128906 2.277344 -8.285156 C 2.4375 -11.238281 2.59375 -14.269531 2.671875 -17.292969 C 2.699219 -17.933594 2.410156 -18.542969 2.09375 -19.550781 C 1.5 -19.027344 1.039062 -18.832031 0.828125 -18.496094 C 0.488281 -17.753906 0.15625 -16.933594 0.0703125 -16.054688 C -0.527344 -11.558594 -0.957031 -6.996094 -1.464844 -2.425781 C -1.578125 -1.859375 -1.449219 -1.234375 -1.398438 -0.601562 C -1.015625 1.195312 0.25 2.125 1.972656 1.828125 C 3.066406 1.582031 4.144531 1.179688 4.882812 0.484375 C 5.933594 -0.316406 6.882812 -1.34375 7.589844 -2.433594 C 9.488281 -5.523438 11.308594 -8.609375 13.121094 -11.773438 C 13.75 -12.855469 14.371094 -14.019531 14.929688 -15.015625 C 24.464844 -14.980469 29.457031 -17.128906 32.921875 -22.488281 C 31.527344 -23.015625 30.652344 -22.070312 29.753906 -21.363281 Z M 29.753906 -21.363281 "/></g></g></g><g fill="#ffffff" fill-opacity="0.5294"><g transform="translate(188.739915, 238.172406)"><g><path d="M 25.117188 -22.742188 C 23.585938 -21.984375 23.289062 -20.765625 22.730469 -19.769531 C 19.273438 -14.328125 15.042969 -9.621094 9.785156 -5.785156 C 8.363281 -4.71875 6.9375 -3.652344 4.820312 -3.324219 C 4.441406 -4.089844 3.988281 -4.765625 3.847656 -5.550781 C 3.769531 -6.496094 3.851562 -7.457031 4.015625 -8.425781 C 4.777344 -11.820312 5.539062 -15.21875 6.378906 -18.621094 C 6.605469 -19.753906 7.148438 -20.910156 6.894531 -22.082031 C 4.136719 -22.8125 3.359375 -22.59375 2.332031 -20.523438 C 0.433594 -16.480469 -0.976562 -12.234375 -1.65625 -7.8125 C -1.699219 -7.332031 -1.738281 -6.851562 -1.78125 -6.371094 C -1.945312 -2.464844 -0.125 -0.546875 3.835938 -0.703125 C 6.613281 -0.765625 9.003906 -1.671875 11.257812 -3.28125 C 16.433594 -7.113281 20.75 -11.746094 23.78125 -17.550781 C 24.40625 -18.710938 24.863281 -19.941406 25.234375 -21.242188 C 25.367188 -21.570312 25.171875 -22.03125 25.117188 -22.742188 Z M 7.804688 -29.621094 C 8.171875 -29.96875 8.464844 -30.308594 8.667969 -30.722656 C 9.128906 -31.949219 9.507812 -33.171875 10.101562 -34.648438 C 7.84375 -35.105469 5.953125 -34.875 4.21875 -33.703125 C 2.863281 -32.800781 2.535156 -30.949219 3.332031 -29.898438 C 4.394531 -28.554688 6.550781 -28.40625 7.804688 -29.621094 Z M 7.804688 -29.621094 "/></g></g></g><g fill="#ffffff" fill-opacity="0.5294"><g transform="translate(211.70924, 236.338292)"><g><path d="M 29.582031 -20.554688 C 28.164062 -19.410156 26.828125 -18.191406 25.582031 -16.898438 C 21.417969 -12.355469 17.335938 -7.738281 13.171875 -3.195312 C 12.367188 -2.339844 11.558594 -1.480469 10.609375 -0.449219 C 8.496094 -3.0625 7.082031 -5.808594 6.054688 -8.746094 C 5.136719 -11.292969 5.335938 -13.773438 6.335938 -16.15625 C 7.730469 -19.605469 10.140625 -22.257812 13.492188 -24.035156 C 14.027344 -24.316406 14.757812 -24.136719 15.625 -24.207031 C 15.453125 -22.367188 15.335938 -20.847656 15.117188 -18.605469 C 16.199219 -19.007812 17.144531 -19.085938 17.429688 -19.503906 C 18.363281 -20.769531 19.128906 -22.105469 19.726562 -23.582031 C 20.183594 -24.808594 19.617188 -25.957031 18.300781 -26.488281 C 17.566406 -26.746094 16.679688 -26.914062 15.882812 -26.929688 C 9.367188 -26.964844 2.105469 -21.378906 0.460938 -15.132812 C -0.0859375 -13.023438 -0.304688 -10.78125 0.65625 -8.710938 C 1.542969 -6.558594 2.59375 -4.339844 3.789062 -2.289062 C 4.902344 -0.3125 6.164062 1.574219 7.355469 3.542969 C 6.488281 4.644531 5.769531 5.578125 5.054688 6.585938 C 3.640625 8.765625 2.144531 10.949219 0.820312 13.28125 C 0.265625 14.277344 0.0507812 15.566406 -0.0117188 16.765625 C -0.117188 18.441406 0.90625 19.3125 2.742188 19.402344 C 4.175781 19.449219 5.570312 19.019531 6.855469 18.203125 C 8.742188 16.9375 10.449219 15.453125 11.804688 13.515625 C 13.382812 11.402344 14.148438 9.039062 13.539062 6.386719 C 13.414062 5.839844 13.285156 5.214844 13.15625 4.589844 C 14.023438 3.488281 14.816406 2.472656 15.609375 1.453125 C 20.757812 -4.675781 25.917969 -10.730469 30.988281 -16.855469 C 31.789062 -17.792969 32.59375 -18.648438 33.304688 -19.660156 C 33.589844 -20.082031 33.625 -20.640625 33.816406 -21.210938 C 32.011719 -21.941406 30.6875 -21.597656 29.582031 -20.554688 Z M 9.214844 12.929688 C 8.398438 14.660156 7.160156 16.03125 5.054688 16.519531 C 5.945312 13.746094 7.515625 11.554688 9.558594 9.246094 C 10.320312 10.855469 9.769531 11.929688 9.214844 12.929688 Z M 9.214844 12.929688 "/></g></g></g><g fill="#ffffff" fill-opacity="0.5294"><g transform="translate(239.572377, 234.113405)"><g><path d="M 25.117188 -22.742188 C 23.585938 -21.984375 23.289062 -20.765625 22.730469 -19.769531 C 19.273438 -14.328125 15.042969 -9.621094 9.785156 -5.785156 C 8.363281 -4.71875 6.9375 -3.652344 4.820312 -3.324219 C 4.441406 -4.089844 3.988281 -4.765625 3.847656 -5.550781 C 3.769531 -6.496094 3.851562 -7.457031 4.015625 -8.425781 C 4.777344 -11.820312 5.539062 -15.21875 6.378906 -18.621094 C 6.605469 -19.753906 7.148438 -20.910156 6.894531 -22.082031 C 4.136719 -22.8125 3.359375 -22.59375 2.332031 -20.523438 C 0.433594 -16.480469 -0.976562 -12.234375 -1.65625 -7.8125 C -1.699219 -7.332031 -1.738281 -6.851562 -1.78125 -6.371094 C -1.945312 -2.464844 -0.125 -0.546875 3.835938 -0.703125 C 6.613281 -0.765625 9.003906 -1.671875 11.257812 -3.28125 C 16.433594 -7.113281 20.75 -11.746094 23.78125 -17.550781 C 24.40625 -18.710938 24.863281 -19.941406 25.234375 -21.242188 C 25.367188 -21.570312 25.171875 -22.03125 25.117188 -22.742188 Z M 7.804688 -29.621094 C 8.171875 -29.96875 8.464844 -30.308594 8.667969 -30.722656 C 9.128906 -31.949219 9.507812 -33.171875 10.101562 -34.648438 C 7.84375 -35.105469 5.953125 -34.875 4.21875 -33.703125 C 2.863281 -32.800781 2.535156 -30.949219 3.332031 -29.898438 C 4.394531 -28.554688 6.550781 -28.40625 7.804688 -29.621094 Z M 7.804688 -29.621094 "/></g></g></g><g fill="#ffffff" fill-opacity="0.5294"><g transform="translate(262.541702, 232.279291)"><g><path d="M 18.144531 -9.550781 C 16.683594 -8.957031 15.222656 -8.367188 13.511719 -8.863281 C 13.890625 -10.085938 14.199219 -11.222656 14.511719 -12.28125 C 15.25 -14.960938 15.832031 -17.628906 15.691406 -20.398438 C 15.5625 -23.964844 14.058594 -25.910156 11.507812 -26.023438 C 10.789062 -26.046875 10.085938 -25.910156 9.386719 -25.695312 C 7.214844 -25.046875 5.433594 -23.472656 3.847656 -21.441406 C 2.191406 -19.320312 1.03125 -16.925781 1.355469 -13.851562 C 0.601562 -12.363281 -0.160156 -10.949219 -0.839844 -9.546875 C -1.570312 -7.738281 -2.292969 -5.855469 -2.445312 -3.777344 C -2.613281 -0.902344 -1.753906 0.933594 0.269531 1.410156 C 1.488281 1.707031 2.828125 1.601562 3.996094 1.269531 C 5.863281 0.804688 7.5 -0.597656 8.953125 -2.304688 C 10.121094 -3.589844 11.28125 -4.953125 12.589844 -6.488281 C 17.867188 -7.066406 18.484375 -7.277344 20.300781 -9.40625 C 19.0625 -10.023438 19.0625 -10.023438 18.144531 -9.550781 Z M 2.433594 -0.351562 C 1.652344 -0.210938 0.980469 -0.632812 0.894531 -1.738281 C 0.734375 -2.757812 0.722656 -3.871094 0.878906 -4.917969 C 1.265625 -7.011719 1.820312 -9.042969 2.933594 -11.039062 C 4.113281 -10.179688 4.964844 -9.453125 5.890625 -8.8125 C 6.808594 -8.25 7.808594 -7.695312 8.804688 -7.136719 C 7.683594 -4.269531 4.457031 -0.910156 2.433594 -0.351562 Z M 10.425781 -9.730469 C 8.453125 -10.527344 7.164062 -11.773438 6.414062 -14.175781 C 5.984375 -15.574219 5.898438 -16.675781 6.429688 -17.992188 C 7.570312 -20.625 9.0625 -22.808594 11.203125 -23.855469 C 12.273438 -23.382812 12.53125 -22.132812 12.628906 -20.949219 C 12.949219 -16.921875 12.132812 -13.203125 10.425781 -9.730469 Z M 10.425781 -9.730469 "/></g></g></g><g fill="#ffffff" fill-opacity="0.5294"><g transform="translate(281.3276, 230.779226)"><g><path d="M 26.613281 -10.945312 C 24.136719 -9.15625 22.109375 -6.691406 18.992188 -4.933594 C 19.257812 -6.542969 19.402344 -7.746094 19.714844 -8.804688 C 20.707031 -12.300781 21.777344 -15.800781 22.691406 -19.289062 C 23.070312 -20.511719 23.363281 -21.804688 23.492188 -23.167969 C 23.636719 -25.324219 22.621094 -26.117188 20.40625 -26.019531 C 18.976562 -25.984375 17.738281 -25.566406 16.699219 -24.691406 C 14.917969 -23.117188 13.058594 -21.539062 11.367188 -19.816406 C 9.386719 -17.75 7.582031 -15.460938 5.695312 -13.246094 C 5.324219 -12.898438 4.871094 -12.625 3.980469 -11.835938 C 4.554688 -14.585938 5.101562 -16.695312 5.410156 -18.785156 C 5.78125 -21.117188 5.007812 -21.851562 2.644531 -21.582031 C 2.171875 -21.542969 1.804688 -21.195312 1.261719 -20.996094 C 0.453125 -17.195312 -0.433594 -13.390625 -1.085938 -9.605469 C -1.507812 -6.949219 -0.136719 -5.707031 2.496094 -6.554688 C 3.351562 -6.78125 4.175781 -7.402344 4.921875 -8.019531 C 6.101562 -9.148438 7.269531 -10.433594 8.367188 -11.632812 C 10.253906 -13.847656 12.144531 -16.0625 14.039062 -18.203125 C 15.28125 -19.570312 16.617188 -20.710938 17.945312 -22.007812 C 18.691406 -20.636719 17.976562 -19.628906 17.734375 -18.65625 C 16.839844 -14.929688 15.789062 -11.191406 14.894531 -7.464844 C 14.601562 -6.171875 14.628906 -4.824219 14.65625 -3.472656 C 14.757812 -2.210938 15.527344 -1.558594 16.800781 -1.5 C 17.753906 -1.496094 18.78125 -1.578125 19.625 -1.964844 C 20.769531 -2.53125 21.90625 -3.257812 22.863281 -4.207031 C 26.476562 -7.675781 30.085938 -11.222656 33.695312 -14.765625 C 33.914062 -15.023438 34.046875 -15.351562 34.472656 -16.019531 C 30.871094 -15.335938 28.929688 -12.796875 26.613281 -10.945312 Z M 26.613281 -10.945312 "/></g></g></g><g fill="#ffffff" fill-opacity="1"><g transform="translate(67.733791, 244.856913)"><g><path d="M 36.191406 -44.203125 C 35.449219 -42.554688 34.707031 -40.90625 33.796875 -39.402344 C 30.433594 -33.730469 26.308594 -28.714844 22.007812 -23.84375 C 14.945312 -15.8125 7.953125 -7.863281 1.046875 0.15625 C -0.699219 2.199219 -2.355469 4.320312 -3.851562 6.503906 C -4.628906 7.679688 -5.15625 9.070312 -5.519531 10.449219 C -6.148438 12.566406 -5.242188 13.925781 -3.273438 14.71875 C -1.472656 15.371094 0.347656 15.304688 2.078125 15.085938 C 5.316406 14.828125 8.246094 13.722656 11.078125 12.382812 C 24.332031 6.238281 37.410156 -0.128906 50.183594 -7.265625 C 52.089844 -8.289062 53.894531 -9.546875 55.707031 -10.722656 C 56.164062 -11 56.441406 -11.496094 56.871094 -12.089844 C 54.609375 -12.542969 54.617188 -12.464844 52.625 -11.511719 C 38.699219 -4.839844 24.773438 1.835938 10.84375 8.429688 C 8.46875 9.570312 5.929688 10.570312 3.460938 11.480469 C 2.839844 11.691406 2.117188 11.589844 1.40625 11.644531 C 0.695312 9.714844 1.523438 8.140625 2.449219 6.796875 C 4.15625 4.277344 5.867188 1.835938 7.820312 -0.546875 C 14.199219 -8.203125 20.660156 -15.871094 27.117188 -23.535156 C 29.878906 -26.773438 32.730469 -29.863281 35.242188 -33.242188 C 37.691406 -36.375 39.964844 -39.734375 41.917969 -43.148438 C 44.226562 -47.066406 42.386719 -49.222656 38.210938 -49.765625 C 37.808594 -49.8125 37.496094 -49.785156 37.101562 -49.753906 C 34.976562 -49.507812 32.757812 -49.410156 30.65625 -48.84375 C 25.457031 -47.316406 20.347656 -45.636719 15.152344 -44.03125 C 14.535156 -43.824219 13.816406 -43.84375 12.957031 -43.695312 C 13.585938 -45.734375 14.761719 -46.9375 15.9375 -48.144531 C 21.949219 -54.425781 28.394531 -60.261719 35.371094 -65.425781 C 37.921875 -67.300781 40.65625 -68.867188 43.394531 -70.4375 C 44.84375 -71.1875 46.285156 -72.019531 48.1875 -72.089844 C 49.996094 -68.34375 48.136719 -64.777344 47.792969 -61.097656 C 48.265625 -61.132812 48.746094 -61.09375 48.976562 -61.191406 C 51.898438 -63.410156 53.558594 -66.480469 54.316406 -69.957031 C 54.882812 -72.785156 53.382812 -74.652344 50.351562 -74.804688 C 48.195312 -74.953125 45.984375 -74.773438 44.003906 -73.742188 C 40.953125 -72.148438 37.738281 -70.621094 34.785156 -68.796875 C 26.320312 -63.355469 18.644531 -57.019531 11.425781 -49.929688 C 10.25 -48.722656 9.074219 -47.515625 8.070312 -46.167969 C 7.132812 -44.980469 5.808594 -43.679688 6.734375 -42.007812 C 7.65625 -40.414062 9.332031 -40.308594 10.917969 -40.355469 C 13.207031 -40.539062 15.492188 -40.800781 17.753906 -41.300781 C 21.019531 -42.195312 24.1875 -43.320312 27.445312 -44.296875 C 30.160156 -45.148438 32.957031 -45.929688 36.292969 -46.910156 C 36.242188 -45.554688 36.464844 -44.777344 36.191406 -44.203125 Z M 36.191406 -44.203125 "/></g></g></g><g fill="#ffffff" fill-opacity="1"><g transform="translate(129.853578, 239.896612)"><g><path d="M 26.613281 -10.945312 C 24.136719 -9.15625 22.109375 -6.691406 18.992188 -4.933594 C 19.257812 -6.542969 19.402344 -7.746094 19.714844 -8.804688 C 20.707031 -12.300781 21.777344 -15.800781 22.691406 -19.289062 C 23.070312 -20.511719 23.363281 -21.804688 23.492188 -23.167969 C 23.636719 -25.324219 22.621094 -26.117188 20.40625 -26.019531 C 18.976562 -25.984375 17.738281 -25.566406 16.699219 -24.691406 C 14.917969 -23.117188 13.058594 -21.539062 11.367188 -19.816406 C 9.386719 -17.75 7.582031 -15.460938 5.695312 -13.246094 C 5.324219 -12.898438 4.871094 -12.625 3.980469 -11.835938 C 4.554688 -14.585938 5.101562 -16.695312 5.410156 -18.785156 C 5.78125 -21.117188 5.007812 -21.851562 2.644531 -21.582031 C 2.171875 -21.542969 1.804688 -21.195312 1.261719 -20.996094 C 0.453125 -17.195312 -0.433594 -13.390625 -1.085938 -9.605469 C -1.507812 -6.949219 -0.136719 -5.707031 2.496094 -6.554688 C 3.351562 -6.78125 4.175781 -7.402344 4.921875 -8.019531 C 6.101562 -9.148438 7.269531 -10.433594 8.367188 -11.632812 C 10.253906 -13.847656 12.144531 -16.0625 14.039062 -18.203125 C 15.28125 -19.570312 16.617188 -20.710938 17.945312 -22.007812 C 18.691406 -20.636719 17.976562 -19.628906 17.734375 -18.65625 C 16.839844 -14.929688 15.789062 -11.191406 14.894531 -7.464844 C 14.601562 -6.171875 14.628906 -4.824219 14.65625 -3.472656 C 14.757812 -2.210938 15.527344 -1.558594 16.800781 -1.5 C 17.753906 -1.496094 18.78125 -1.578125 19.625 -1.964844 C 20.769531 -2.53125 21.90625 -3.257812 22.863281 -4.207031 C 26.476562 -7.675781 30.085938 -11.222656 33.695312 -14.765625 C 33.914062 -15.023438 34.046875 -15.351562 34.472656 -16.019531 C 30.871094 -15.335938 28.929688 -12.796875 26.613281 -10.945312 Z M 26.613281 -10.945312 "/></g></g></g><g fill="#ffffff" fill-opacity="1"><g transform="translate(161.505467, 237.36919)"><g><path d="M 29.753906 -21.363281 C 27.4375 -19.511719 25.015625 -18.046875 22.136719 -17.257812 C 20.1875 -16.785156 18.28125 -16.792969 16.703125 -18.652344 C 17.800781 -21.839844 18.914062 -24.789062 19.949219 -27.730469 C 20.277344 -28.628906 20.582031 -29.765625 19.652344 -30.488281 C 18.726562 -31.128906 17.613281 -31.117188 16.539062 -30.636719 C 16 -30.433594 15.386719 -30.148438 15.023438 -29.71875 C 12.179688 -26.554688 10.484375 -22.921875 11.074219 -18.519531 C 11.222656 -17.660156 11.285156 -16.871094 10.945312 -16.128906 C 8.675781 -11.734375 6.410156 -7.265625 4.132812 -2.953125 C 3.863281 -2.375 3.53125 -1.554688 2.230469 -1.925781 C 2.222656 -3.992188 2.132812 -6.128906 2.277344 -8.285156 C 2.4375 -11.238281 2.59375 -14.269531 2.671875 -17.292969 C 2.699219 -17.933594 2.410156 -18.542969 2.09375 -19.550781 C 1.5 -19.027344 1.039062 -18.832031 0.828125 -18.496094 C 0.488281 -17.753906 0.15625 -16.933594 0.0703125 -16.054688 C -0.527344 -11.558594 -0.957031 -6.996094 -1.464844 -2.425781 C -1.578125 -1.859375 -1.449219 -1.234375 -1.398438 -0.601562 C -1.015625 1.195312 0.25 2.125 1.972656 1.828125 C 3.066406 1.582031 4.144531 1.179688 4.882812 0.484375 C 5.933594 -0.316406 6.882812 -1.34375 7.589844 -2.433594 C 9.488281 -5.523438 11.308594 -8.609375 13.121094 -11.773438 C 13.75 -12.855469 14.371094 -14.019531 14.929688 -15.015625 C 24.464844 -14.980469 29.457031 -17.128906 32.921875 -22.488281 C 31.527344 -23.015625 30.652344 -22.070312 29.753906 -21.363281 Z M 29.753906 -21.363281 "/></g></g></g><g fill="#ffffff" fill-opacity="1"><g transform="translate(191.26298, 234.993035)"><g><path d="M 25.117188 -22.742188 C 23.585938 -21.984375 23.289062 -20.765625 22.730469 -19.769531 C 19.273438 -14.328125 15.042969 -9.621094 9.785156 -5.785156 C 8.363281 -4.71875 6.9375 -3.652344 4.820312 -3.324219 C 4.441406 -4.089844 3.988281 -4.765625 3.847656 -5.550781 C 3.769531 -6.496094 3.851562 -7.457031 4.015625 -8.425781 C 4.777344 -11.820312 5.539062 -15.21875 6.378906 -18.621094 C 6.605469 -19.753906 7.148438 -20.910156 6.894531 -22.082031 C 4.136719 -22.8125 3.359375 -22.59375 2.332031 -20.523438 C 0.433594 -16.480469 -0.976562 -12.234375 -1.65625 -7.8125 C -1.699219 -7.332031 -1.738281 -6.851562 -1.78125 -6.371094 C -1.945312 -2.464844 -0.125 -0.546875 3.835938 -0.703125 C 6.613281 -0.765625 9.003906 -1.671875 11.257812 -3.28125 C 16.433594 -7.113281 20.75 -11.746094 23.78125 -17.550781 C 24.40625 -18.710938 24.863281 -19.941406 25.234375 -21.242188 C 25.367188 -21.570312 25.171875 -22.03125 25.117188 -22.742188 Z M 7.804688 -29.621094 C 8.171875 -29.96875 8.464844 -30.308594 8.667969 -30.722656 C 9.128906 -31.949219 9.507812 -33.171875 10.101562 -34.648438 C 7.84375 -35.105469 5.953125 -34.875 4.21875 -33.703125 C 2.863281 -32.800781 2.535156 -30.949219 3.332031 -29.898438 C 4.394531 -28.554688 6.550781 -28.40625 7.804688 -29.621094 Z M 7.804688 -29.621094 "/></g></g></g><g fill="#ffffff" fill-opacity="1"><g transform="translate(214.232305, 233.158921)"><g><path d="M 29.582031 -20.554688 C 28.164062 -19.410156 26.828125 -18.191406 25.582031 -16.898438 C 21.417969 -12.355469 17.335938 -7.738281 13.171875 -3.195312 C 12.367188 -2.339844 11.558594 -1.480469 10.609375 -0.449219 C 8.496094 -3.0625 7.082031 -5.808594 6.054688 -8.746094 C 5.136719 -11.292969 5.335938 -13.773438 6.335938 -16.15625 C 7.730469 -19.605469 10.140625 -22.257812 13.492188 -24.035156 C 14.027344 -24.316406 14.757812 -24.136719 15.625 -24.207031 C 15.453125 -22.367188 15.335938 -20.847656 15.117188 -18.605469 C 16.199219 -19.007812 17.144531 -19.085938 17.429688 -19.503906 C 18.363281 -20.769531 19.128906 -22.105469 19.726562 -23.582031 C 20.183594 -24.808594 19.617188 -25.957031 18.300781 -26.488281 C 17.566406 -26.746094 16.679688 -26.914062 15.882812 -26.929688 C 9.367188 -26.964844 2.105469 -21.378906 0.460938 -15.132812 C -0.0859375 -13.023438 -0.304688 -10.78125 0.65625 -8.710938 C 1.542969 -6.558594 2.59375 -4.339844 3.789062 -2.289062 C 4.902344 -0.3125 6.164062 1.574219 7.355469 3.542969 C 6.488281 4.644531 5.769531 5.578125 5.054688 6.585938 C 3.640625 8.765625 2.144531 10.949219 0.820312 13.28125 C 0.265625 14.277344 0.0507812 15.566406 -0.0117188 16.765625 C -0.117188 18.441406 0.90625 19.3125 2.742188 19.402344 C 4.175781 19.449219 5.570312 19.019531 6.855469 18.203125 C 8.742188 16.9375 10.449219 15.453125 11.804688 13.515625 C 13.382812 11.402344 14.148438 9.039062 13.539062 6.386719 C 13.414062 5.839844 13.285156 5.214844 13.15625 4.589844 C 14.023438 3.488281 14.816406 2.472656 15.609375 1.453125 C 20.757812 -4.675781 25.917969 -10.730469 30.988281 -16.855469 C 31.789062 -17.792969 32.59375 -18.648438 33.304688 -19.660156 C 33.589844 -20.082031 33.625 -20.640625 33.816406 -21.210938 C 32.011719 -21.941406 30.6875 -21.597656 29.582031 -20.554688 Z M 9.214844 12.929688 C 8.398438 14.660156 7.160156 16.03125 5.054688 16.519531 C 5.945312 13.746094 7.515625 11.554688 9.558594 9.246094 C 10.320312 10.855469 9.769531 11.929688 9.214844 12.929688 Z M 9.214844 12.929688 "/></g></g></g><g fill="#ffffff" fill-opacity="1"><g transform="translate(242.095442, 230.934034)"><g><path d="M 25.117188 -22.742188 C 23.585938 -21.984375 23.289062 -20.765625 22.730469 -19.769531 C 19.273438 -14.328125 15.042969 -9.621094 9.785156 -5.785156 C 8.363281 -4.71875 6.9375 -3.652344 4.820312 -3.324219 C 4.441406 -4.089844 3.988281 -4.765625 3.847656 -5.550781 C 3.769531 -6.496094 3.851562 -7.457031 4.015625 -8.425781 C 4.777344 -11.820312 5.539062 -15.21875 6.378906 -18.621094 C 6.605469 -19.753906 7.148438 -20.910156 6.894531 -22.082031 C 4.136719 -22.8125 3.359375 -22.59375 2.332031 -20.523438 C 0.433594 -16.480469 -0.976562 -12.234375 -1.65625 -7.8125 C -1.699219 -7.332031 -1.738281 -6.851562 -1.78125 -6.371094 C -1.945312 -2.464844 -0.125 -0.546875 3.835938 -0.703125 C 6.613281 -0.765625 9.003906 -1.671875 11.257812 -3.28125 C 16.433594 -7.113281 20.75 -11.746094 23.78125 -17.550781 C 24.40625 -18.710938 24.863281 -19.941406 25.234375 -21.242188 C 25.367188 -21.570312 25.171875 -22.03125 25.117188 -22.742188 Z M 7.804688 -29.621094 C 8.171875 -29.96875 8.464844 -30.308594 8.667969 -30.722656 C 9.128906 -31.949219 9.507812 -33.171875 10.101562 -34.648438 C 7.84375 -35.105469 5.953125 -34.875 4.21875 -33.703125 C 2.863281 -32.800781 2.535156 -30.949219 3.332031 -29.898438 C 4.394531 -28.554688 6.550781 -28.40625 7.804688 -29.621094 Z M 7.804688 -29.621094 "/></g></g></g><g fill="#ffffff" fill-opacity="1"><g transform="translate(265.064766, 229.09992)"><g><path d="M 18.144531 -9.550781 C 16.683594 -8.957031 15.222656 -8.367188 13.511719 -8.863281 C 13.890625 -10.085938 14.199219 -11.222656 14.511719 -12.28125 C 15.25 -14.960938 15.832031 -17.628906 15.691406 -20.398438 C 15.5625 -23.964844 14.058594 -25.910156 11.507812 -26.023438 C 10.789062 -26.046875 10.085938 -25.910156 9.386719 -25.695312 C 7.214844 -25.046875 5.433594 -23.472656 3.847656 -21.441406 C 2.191406 -19.320312 1.03125 -16.925781 1.355469 -13.851562 C 0.601562 -12.363281 -0.160156 -10.949219 -0.839844 -9.546875 C -1.570312 -7.738281 -2.292969 -5.855469 -2.445312 -3.777344 C -2.613281 -0.902344 -1.753906 0.933594 0.269531 1.410156 C 1.488281 1.707031 2.828125 1.601562 3.996094 1.269531 C 5.863281 0.804688 7.5 -0.597656 8.953125 -2.304688 C 10.121094 -3.589844 11.28125 -4.953125 12.589844 -6.488281 C 17.867188 -7.066406 18.484375 -7.277344 20.300781 -9.40625 C 19.0625 -10.023438 19.0625 -10.023438 18.144531 -9.550781 Z M 2.433594 -0.351562 C 1.652344 -0.210938 0.980469 -0.632812 0.894531 -1.738281 C 0.734375 -2.757812 0.722656 -3.871094 0.878906 -4.917969 C 1.265625 -7.011719 1.820312 -9.042969 2.933594 -11.039062 C 4.113281 -10.179688 4.964844 -9.453125 5.890625 -8.8125 C 6.808594 -8.25 7.808594 -7.695312 8.804688 -7.136719 C 7.683594 -4.269531 4.457031 -0.910156 2.433594 -0.351562 Z M 10.425781 -9.730469 C 8.453125 -10.527344 7.164062 -11.773438 6.414062 -14.175781 C 5.984375 -15.574219 5.898438 -16.675781 6.429688 -17.992188 C 7.570312 -20.625 9.0625 -22.808594 11.203125 -23.855469 C 12.273438 -23.382812 12.53125 -22.132812 12.628906 -20.949219 C 12.949219 -16.921875 12.132812 -13.203125 10.425781 -9.730469 Z M 10.425781 -9.730469 "/></g></g></g><g fill="#ffffff" fill-opacity="1"><g transform="translate(283.850665, 227.599855)"><g><path d="M 26.613281 -10.945312 C 24.136719 -9.15625 22.109375 -6.691406 18.992188 -4.933594 C 19.257812 -6.542969 19.402344 -7.746094 19.714844 -8.804688 C 20.707031 -12.300781 21.777344 -15.800781 22.691406 -19.289062 C 23.070312 -20.511719 23.363281 -21.804688 23.492188 -23.167969 C 23.636719 -25.324219 22.621094 -26.117188 20.40625 -26.019531 C 18.976562 -25.984375 17.738281 -25.566406 16.699219 -24.691406 C 14.917969 -23.117188 13.058594 -21.539062 11.367188 -19.816406 C 9.386719 -17.75 7.582031 -15.460938 5.695312 -13.246094 C 5.324219 -12.898438 4.871094 -12.625 3.980469 -11.835938 C 4.554688 -14.585938 5.101562 -16.695312 5.410156 -18.785156 C 5.78125 -21.117188 5.007812 -21.851562 2.644531 -21.582031 C 2.171875 -21.542969 1.804688 -21.195312 1.261719 -20.996094 C 0.453125 -17.195312 -0.433594 -13.390625 -1.085938 -9.605469 C -1.507812 -6.949219 -0.136719 -5.707031 2.496094 -6.554688 C 3.351562 -6.78125 4.175781 -7.402344 4.921875 -8.019531 C 6.101562 -9.148438 7.269531 -10.433594 8.367188 -11.632812 C 10.253906 -13.847656 12.144531 -16.0625 14.039062 -18.203125 C 15.28125 -19.570312 16.617188 -20.710938 17.945312 -22.007812 C 18.691406 -20.636719 17.976562 -19.628906 17.734375 -18.65625 C 16.839844 -14.929688 15.789062 -11.191406 14.894531 -7.464844 C 14.601562 -6.171875 14.628906 -4.824219 14.65625 -3.472656 C 14.757812 -2.210938 15.527344 -1.558594 16.800781 -1.5 C 17.753906 -1.496094 18.78125 -1.578125 19.625 -1.964844 C 20.769531 -2.53125 21.90625 -3.257812 22.863281 -4.207031 C 26.476562 -7.675781 30.085938 -11.222656 33.695312 -14.765625 C 33.914062 -15.023438 34.046875 -15.351562 34.472656 -16.019531 C 30.871094 -15.335938 28.929688 -12.796875 26.613281 -10.945312 Z M 26.613281 -10.945312 "/></g></g></g></svg>