<svg xmlns="http://www.w3.org/2000/svg" xmlns:xlink="http://www.w3.org/1999/xlink" width="500" zoomAndPan="magnify" viewBox="0 0 375 374.999991" height="500" preserveAspectRatio="xMidYMid meet" version="1.0"><defs><g/></defs><g fill="#000000" fill-opacity="1"><g transform="translate(95.880087, 194.626551)"><g><path d="M 33.152344 0.195312 L 33.933594 0.0976562 L 35.882812 0.0976562 L 37.152344 0 L 37.734375 -0.0976562 L 39.199219 -0.0976562 L 40.367188 -0.390625 L 40.757812 -0.976562 L 40.953125 -1.65625 L 40.953125 -2.4375 L 41.148438 -3.121094 L 41.246094 -3.898438 L 41.539062 -4.386719 L 41.734375 -5.558594 L 41.832031 -6.628906 L 42.027344 -7.3125 L 42.222656 -8.582031 L 42.320312 -9.261719 L 42.613281 -10.628906 L 42.710938 -12.1875 L 42.808594 -13.554688 L 43 -14.140625 L 43.292969 -15.210938 L 43.585938 -16.578125 L 43.683594 -17.257812 L 43.683594 -18.039062 L 43.976562 -19.40625 L 44.074219 -20.085938 L 44.269531 -20.671875 L 44.464844 -21.355469 L 44.367188 -21.941406 L 44.953125 -23.988281 L 44.855469 -24.574219 L 45.050781 -25.253906 L 45.34375 -26.621094 L 45.535156 -27.691406 L 45.535156 -28.277344 L 45.925781 -30.03125 L 46.023438 -30.714844 L 46.511719 -31.984375 L 46.609375 -32.664062 L 46.609375 -33.933594 L 46.707031 -34.617188 L 47 -35.199219 L 46.804688 -35.882812 L 46.804688 -36.664062 L 47.195312 -37.25 L 47.292969 -37.929688 L 47.585938 -39.296875 L 47.683594 -39.882812 L 47.78125 -41.34375 L 48.265625 -42.710938 L 48.363281 -44.171875 L 48.558594 -45.730469 L 48.753906 -47 L 48.851562 -47.585938 L 49.339844 -48.753906 L 49.4375 -49.339844 L 49.632812 -50.609375 L 49.730469 -51.386719 L 49.925781 -52.070312 L 50.023438 -52.753906 L 50.316406 -54.019531 L 50.414062 -54.703125 L 50.609375 -55.96875 L 50.609375 -56.652344 L 50.703125 -57.921875 L 50.898438 -58.699219 L 51.09375 -59.382812 L 51.191406 -60.066406 L 51.191406 -60.847656 L 51.289062 -62.210938 L 51.679688 -63.382812 L 51.679688 -64.0625 L 51.777344 -64.648438 L 51.679688 -65.039062 L 52.070312 -65.625 L 51.972656 -66.304688 L 52.070312 -66.890625 L 51.386719 -67.769531 L 50.703125 -68.0625 L 49.144531 -68.257812 L 46.414062 -68.257812 L 44.464844 -68.355469 L 40.953125 -68.355469 L 40.078125 -68.257812 L 39.492188 -68.160156 L 38.710938 -67.28125 L 38.613281 -66.695312 L 38.710938 -66.015625 L 38.515625 -65.332031 L 38.125 -64.453125 L 38.027344 -63.867188 L 37.832031 -62.601562 L 37.640625 -62.015625 L 37.347656 -60.75 L 37.347656 -59.96875 L 36.957031 -58.601562 L 36.859375 -57.921875 L 36.957031 -57.140625 L 36.957031 -55.96875 L 36.566406 -55.09375 L 36.46875 -53.824219 L 36.175781 -52.558594 L 36.175781 -51.875 L 35.980469 -51.289062 L 35.882812 -50.609375 L 35.785156 -49.828125 L 35.6875 -49.144531 L 35.589844 -48.558594 L 35.101562 -47.292969 L 35.296875 -46.707031 L 34.8125 -45.246094 L 34.714844 -44.5625 L 34.714844 -43.878906 L 34.324219 -43 L 34.128906 -41.929688 L 34.03125 -41.441406 L 31.984375 -41.539062 L 31.203125 -41.441406 L 30.03125 -41.539062 L 29.253906 -41.441406 L 26.425781 -41.539062 L 25.644531 -41.539062 L 24.960938 -41.636719 L 25.15625 -42.417969 L 25.253906 -43 L 25.449219 -43.78125 L 25.351562 -44.367188 L 25.546875 -45.050781 L 25.839844 -46.316406 L 25.742188 -47 L 26.035156 -47.585938 L 26.132812 -48.265625 L 26.328125 -49.046875 L 26.523438 -49.535156 L 26.523438 -50.121094 L 26.621094 -51.289062 L 26.816406 -51.777344 L 26.914062 -53.046875 L 27.109375 -53.824219 L 27.300781 -54.507812 L 27.300781 -56.066406 L 27.59375 -56.75 L 27.691406 -57.921875 L 27.886719 -59.285156 L 28.277344 -61.136719 L 28.375 -62.015625 L 28.667969 -62.894531 L 28.765625 -64.257812 L 28.863281 -64.84375 L 29.15625 -66.015625 L 29.058594 -66.695312 L 29.058594 -67.28125 L 28.863281 -68.160156 L 27.886719 -68.355469 L 26.71875 -68.550781 L 25.742188 -68.257812 L 23.597656 -68.257812 L 22.230469 -68.355469 L 18.234375 -68.257812 L 15.796875 -68.257812 L 14.917969 -67.769531 L 14.820312 -66.695312 L 14.722656 -65.527344 L 14.429688 -64.257812 L 14.238281 -63.578125 L 14.332031 -62.796875 L 14.042969 -62.113281 L 13.945312 -61.429688 L 13.75 -60.75 L 13.847656 -59.382812 L 13.164062 -58.117188 L 13.164062 -56.066406 L 12.871094 -54.800781 L 12.773438 -54.214844 L 12.675781 -53.433594 L 12.285156 -52.65625 L 12.285156 -51.289062 L 12.1875 -50.800781 L 11.894531 -48.753906 L 11.699219 -47.976562 L 11.507812 -46.707031 L 11.117188 -44.660156 L 11.019531 -43.292969 L 10.921875 -42.613281 L 10.335938 -41.246094 L 10.238281 -39.882812 L 10.042969 -38.515625 L 9.945312 -37.929688 L 9.457031 -35.101562 L 9.070312 -33.738281 L 9.070312 -32.957031 L 8.777344 -32.179688 L 8.484375 -31.496094 L 8.289062 -30.03125 L 8.289062 -29.351562 L 8.09375 -28.179688 L 7.800781 -27.207031 L 7.703125 -25.9375 L 7.3125 -24.574219 L 7.410156 -23.890625 L 7.214844 -23.109375 L 7.117188 -22.523438 L 6.921875 -21.941406 L 6.4375 -18.527344 L 6.242188 -17.746094 L 5.949219 -16.382812 L 5.949219 -15.601562 L 5.851562 -14.917969 L 5.460938 -14.042969 L 5.070312 -13.359375 L 5.167969 -11.992188 L 4.777344 -10.628906 L 4.875 -9.847656 L 4.679688 -9.164062 L 4.09375 -8.09375 L 4.289062 -7.410156 L 4.09375 -6.824219 L 4.09375 -6.144531 L 3.898438 -5.265625 L 3.804688 -4.289062 L 3.316406 -3.023438 L 2.925781 -2.144531 L 2.925781 -1.363281 L 3.316406 -0.292969 L 5.265625 -0.0976562 L 8.386719 -0.0976562 L 9.554688 0.0976562 L 10.238281 -0.0976562 L 10.921875 -0.195312 L 11.605469 0.0976562 L 12.382812 0.0976562 L 13.847656 -0.0976562 L 15.015625 -0.195312 L 15.894531 -0.292969 L 16.675781 -0.683594 L 17.160156 -1.65625 L 17.355469 -3.121094 L 17.453125 -3.804688 L 17.648438 -4.582031 L 17.84375 -5.949219 L 17.84375 -6.628906 L 18.136719 -7.996094 L 18.234375 -8.777344 L 18.820312 -11.507812 L 19.015625 -12.96875 L 19.40625 -14.238281 L 19.5 -14.722656 L 19.988281 -15.894531 L 19.890625 -16.480469 L 20.476562 -18.625 L 20.964844 -20.867188 L 21.160156 -21.550781 L 21.160156 -23.207031 L 21.550781 -23.890625 L 21.746094 -25.15625 L 22.132812 -26.523438 L 22.230469 -27.300781 L 22.328125 -27.789062 L 23.988281 -27.691406 L 25.449219 -27.398438 L 28.570312 -27.691406 L 29.449219 -27.496094 L 30.128906 -27.496094 L 31.007812 -27.59375 L 30.8125 -26.425781 L 30.8125 -25.742188 L 30.617188 -24.378906 L 30.421875 -23.695312 L 30.128906 -22.328125 L 30.128906 -21.160156 L 29.933594 -20.183594 L 29.546875 -19.113281 L 28.960938 -16.1875 L 28.765625 -14.332031 L 28.472656 -12.871094 L 28.375 -11.507812 L 28.179688 -11.019531 L 28.082031 -9.75 L 27.984375 -9.070312 L 27.984375 -8.386719 L 27.886719 -7.703125 L 27.496094 -5.65625 L 27.496094 -4.289062 L 27.109375 -3.609375 L 26.914062 -2.730469 L 26.816406 -1.851562 L 26.71875 -1.074219 L 27.300781 -0.195312 L 27.984375 -0.0976562 L 28.667969 -0.0976562 L 29.742188 0 L 32.375 0 Z M 33.152344 0.195312 "/></g></g></g><g fill="#000000" fill-opacity="1"><g transform="translate(144.923937, 194.626551)"><g><path d="M 7.898438 0.195312 L 8.679688 0.0976562 L 11.410156 0.195312 L 11.992188 -0.195312 L 12.382812 -0.878906 L 12.675781 -1.363281 L 12.96875 -2.4375 L 13.554688 -3.898438 L 14.527344 -5.753906 L 14.917969 -6.921875 L 15.210938 -7.605469 L 15.40625 -8.289062 L 16.089844 -9.554688 L 16.578125 -10.628906 L 19.210938 -10.628906 L 23.5 -10.53125 L 25.058594 -10.335938 L 27.207031 -10.238281 L 27.300781 -9.457031 L 27.300781 -4.875 L 27.207031 -3.898438 L 27.300781 -2.925781 L 27.398438 -1.171875 L 27.59375 -0.195312 L 27.984375 0.0976562 L 29.449219 0.0976562 L 30.714844 0.195312 L 31.691406 0.0976562 L 32.375 0 L 33.542969 0.0976562 L 34.324219 0.0976562 L 36.46875 0 L 37.832031 0 L 38.613281 0.0976562 L 39.296875 0 C 39.6875 0 39.980469 0.0976562 40.367188 0 C 40.855469 -0.292969 40.757812 -1.171875 40.660156 -1.558594 L 40.660156 -3.609375 L 40.5625 -5.753906 L 40.5625 -6.628906 L 40.464844 -7.410156 L 40.5625 -8.777344 L 40.5625 -10.238281 L 40.464844 -10.921875 L 40.367188 -12.1875 L 40.367188 -12.773438 L 40.175781 -16.480469 L 40.273438 -17.160156 L 40.175781 -18.527344 L 40.273438 -19.988281 L 40.175781 -21.453125 L 40.175781 -22.132812 L 40.078125 -26.621094 L 40.078125 -29.546875 L 39.980469 -30.324219 L 39.882812 -31.496094 L 39.882812 -35.296875 L 39.6875 -36.371094 L 39.589844 -37.929688 L 39.589844 -38.515625 L 39.492188 -39.785156 L 39.589844 -40.367188 L 39.492188 -41.734375 L 39.492188 -43.683594 L 39.296875 -45.050781 L 39.296875 -47.195312 L 39.394531 -47.878906 L 39.296875 -49.339844 L 39.296875 -50.703125 L 39.101562 -52.65625 L 39.003906 -53.921875 L 39.003906 -55.289062 L 38.90625 -58.796875 L 38.90625 -60.554688 L 38.710938 -61.136719 L 38.710938 -63.285156 L 38.417969 -67.476562 L 37.734375 -67.964844 L 37.25 -68.160156 L 35.6875 -68.160156 L 34.8125 -68.0625 L 34.128906 -68.257812 L 33.25 -68.257812 L 31.398438 -68.160156 L 29.839844 -68.160156 L 28.863281 -68.0625 L 27.011719 -68.160156 L 26.035156 -68.160156 L 25.351562 -68.0625 L 24.960938 -66.988281 L 24.671875 -66.402344 L 24.378906 -65.722656 L 23.5 -63.964844 L 22.816406 -62.699219 L 22.230469 -60.945312 L 22.039062 -60.457031 L 21.648438 -59.871094 L 21.0625 -58.796875 L 20.867188 -58.117188 L 20.671875 -57.53125 L 20.378906 -56.945312 L 20.183594 -56.261719 L 19.308594 -54.507812 L 19.015625 -53.824219 L 18.722656 -52.851562 L 18.136719 -51.972656 L 17.84375 -51.386719 L 17.355469 -50.121094 L 16.578125 -48.074219 L 16.1875 -47.488281 L 15.699219 -46.804688 L 15.40625 -45.441406 L 14.820312 -44.171875 L 14.625 -43.683594 L 14.332031 -42.417969 L 13.847656 -41.734375 L 13.554688 -40.464844 L 13.261719 -39.882812 L 12.675781 -38.808594 L 12.1875 -37.152344 L 11.507812 -35.882812 L 11.214844 -35.101562 L 10.433594 -32.375 L 10.140625 -31.789062 L 9.652344 -30.421875 L 9.359375 -29.839844 L 9.070312 -29.15625 L 8.972656 -28.570312 L 8.386719 -27.207031 L 8.191406 -26.523438 L 7.605469 -25.351562 L 7.117188 -24.574219 L 6.921875 -23.695312 L 6.726562 -23.011719 L 6.046875 -21.648438 L 5.753906 -20.964844 L 5.265625 -19.695312 L 4.972656 -19.113281 L 4.875 -18.429688 L 4.679688 -17.84375 L 4.191406 -16.675781 L 3.707031 -15.992188 L 3.511719 -15.40625 L 2.730469 -13.652344 L 2.339844 -12.382812 L 1.269531 -10.042969 L 0.78125 -8.875 L 0.195312 -7.703125 L -0.78125 -4.777344 L -1.558594 -3.511719 L -2.144531 -2.339844 L -2.242188 -1.753906 L -2.4375 -1.074219 L -2.242188 -0.292969 L -1.363281 -0.0976562 L 5.753906 0 L 6.4375 0.0976562 Z M 23.988281 -23.304688 L 23.109375 -23.402344 L 22.039062 -23.5 L 21.257812 -23.5 L 20.574219 -24.085938 L 20.867188 -24.765625 L 21.0625 -25.644531 L 21.257812 -26.328125 L 21.746094 -27.984375 L 22.132812 -28.667969 L 22.621094 -30.128906 L 22.71875 -30.8125 L 23.304688 -32.957031 L 23.597656 -33.835938 L 23.890625 -34.519531 L 24.183594 -35.394531 L 24.574219 -36.078125 L 24.671875 -36.761719 L 25.058594 -37.734375 L 25.449219 -38.515625 L 25.9375 -40.078125 L 26.230469 -41.050781 L 26.71875 -42.613281 L 27.109375 -43.878906 L 27.886719 -44.171875 L 27.984375 -41.929688 L 27.886719 -38.417969 L 27.789062 -34.714844 L 27.886719 -32.375 L 27.691406 -31.59375 L 27.691406 -29.933594 L 27.59375 -29.253906 L 27.59375 -26.71875 L 27.496094 -25.9375 L 27.59375 -25.15625 L 27.496094 -23.792969 L 26.914062 -23.304688 Z M 23.988281 -23.304688 "/></g></g></g><g fill="#000000" fill-opacity="1"><g transform="translate(188.410115, 194.626551)"><g><path d="M 21.355469 1.171875 L 22.328125 0.976562 L 23.597656 0.878906 L 25.058594 0.878906 L 26.328125 0.585938 L 27.496094 0.390625 L 28.667969 0.0976562 L 31.203125 -0.488281 L 31.886719 -0.78125 L 33.445312 -1.753906 L 34.910156 -3.023438 L 36.371094 -4.777344 L 36.566406 -5.363281 L 36.859375 -5.949219 L 37.347656 -6.53125 L 37.734375 -7.117188 L 38.027344 -7.800781 L 38.515625 -8.972656 L 39.101562 -10.53125 L 39.394531 -11.117188 L 39.589844 -11.796875 L 39.6875 -12.480469 L 39.980469 -13.652344 L 40.5625 -16.089844 L 40.757812 -16.675781 L 41.050781 -18.722656 L 41.148438 -19.113281 L 41.246094 -19.792969 L 41.441406 -20.28125 L 41.539062 -21.355469 L 41.734375 -22.621094 L 41.734375 -23.304688 L 41.929688 -23.890625 L 41.929688 -24.960938 L 41.539062 -25.644531 L 40.855469 -26.328125 L 39.6875 -26.425781 L 34.910156 -26.71875 L 32.859375 -26.71875 L 30.324219 -26.816406 L 29.546875 -26.71875 L 28.863281 -25.9375 L 28.667969 -24.960938 L 28.179688 -23.695312 L 28.082031 -23.011719 L 27.886719 -22.132812 L 27.59375 -20.671875 L 27.300781 -19.5 L 27.207031 -19.015625 L 27.109375 -18.429688 L 26.71875 -17.160156 L 26.230469 -15.796875 L 25.449219 -14.042969 L 25.058594 -13.554688 L 23.695312 -12.675781 L 22.230469 -12.675781 L 20.671875 -12.480469 L 19.210938 -12.96875 L 18.429688 -13.652344 L 18.039062 -15.113281 L 18.039062 -15.796875 L 17.941406 -16.382812 L 17.941406 -17.355469 L 18.039062 -18.722656 L 18.332031 -20.085938 L 18.332031 -20.867188 L 18.625 -22.914062 L 18.527344 -23.597656 L 18.722656 -24.28125 L 18.820312 -24.960938 L 18.820312 -25.742188 L 18.917969 -26.425781 L 19.210938 -27.109375 L 19.210938 -29.15625 L 19.5 -30.617188 L 19.695312 -31.398438 L 19.890625 -32.664062 L 19.988281 -33.347656 L 20.378906 -34.910156 L 20.476562 -35.6875 L 21.257812 -39.589844 L 21.746094 -41.050781 L 21.941406 -42.417969 L 22.132812 -43.097656 L 22.230469 -43.683594 L 22.328125 -44.367188 L 22.621094 -45.246094 L 22.914062 -46.414062 L 23.207031 -47.878906 L 23.597656 -49.046875 L 23.597656 -49.632812 L 24.183594 -51.289062 L 24.671875 -52.558594 L 25.058594 -54.214844 L 25.351562 -54.898438 L 25.644531 -55.484375 L 26.523438 -56.554688 L 27.59375 -56.945312 L 28.765625 -57.140625 L 29.839844 -57.140625 L 31.203125 -56.75 L 32.277344 -56.164062 L 32.859375 -54.410156 L 32.859375 -52.949219 L 32.664062 -51.582031 L 32.566406 -50.316406 L 31.984375 -48.167969 L 31.789062 -46.804688 L 31.398438 -45.050781 L 31.203125 -44.367188 L 31.203125 -43 L 31.886719 -41.929688 L 34.714844 -41.539062 L 40.855469 -41.441406 L 42.222656 -41.539062 L 43.390625 -41.636719 L 43.78125 -42.027344 L 44.269531 -44.5625 L 44.464844 -45.34375 L 45.050781 -49.144531 L 45.246094 -50.703125 L 45.441406 -52.167969 L 45.632812 -52.949219 L 45.730469 -53.921875 L 45.730469 -56.066406 L 45.632812 -57.53125 L 45.535156 -58.410156 L 45.441406 -59.675781 L 45.34375 -60.847656 L 45.148438 -61.917969 L 44.660156 -62.894531 L 44.464844 -63.578125 L 44.171875 -64.0625 L 43.683594 -64.941406 L 43.488281 -65.429688 L 42.417969 -66.402344 L 41.148438 -67.378906 L 39.785156 -67.867188 L 38.710938 -68.0625 L 38.320312 -68.355469 L 37.640625 -68.453125 L 36.957031 -68.648438 L 36.371094 -68.746094 L 35.007812 -68.9375 L 34.03125 -68.9375 L 33.152344 -69.230469 L 30.714844 -69.523438 L 29.15625 -69.523438 L 27.300781 -69.425781 L 25.839844 -69.425781 L 25.15625 -69.328125 L 23.890625 -69.035156 L 22.230469 -68.746094 L 20.183594 -67.867188 L 19.597656 -67.574219 L 18.332031 -66.988281 L 17.746094 -66.5 L 16.382812 -65.136719 L 15.601562 -64.160156 L 14.917969 -63.1875 L 14.238281 -62.601562 L 13.847656 -61.527344 L 13.261719 -60.164062 L 12.773438 -58.992188 L 12.1875 -57.335938 L 11.796875 -55.96875 L 11.214844 -54.019531 L 10.53125 -52.070312 L 10.238281 -50.800781 L 9.945312 -50.121094 L 9.847656 -49.4375 L 9.75 -48.851562 L 9.554688 -48.167969 L 9.457031 -47.488281 L 9.164062 -46.902344 L 9.070312 -45.925781 L 8.875 -44.855469 L 8.679688 -44.171875 L 8.191406 -42.222656 L 8.191406 -40.855469 L 7.898438 -40.273438 L 7.898438 -39.6875 L 7.800781 -38.515625 L 7.507812 -37.542969 L 7.3125 -36.46875 L 7.019531 -35.394531 L 7.019531 -35.007812 L 6.921875 -34.714844 L 6.921875 -33.347656 L 6.53125 -32.761719 L 6.242188 -31.007812 L 6.339844 -30.519531 L 6.046875 -29.449219 L 5.851562 -28.667969 L 5.949219 -27.789062 L 5.558594 -26.425781 L 5.363281 -24.378906 L 5.265625 -23.792969 L 5.265625 -23.109375 L 5.070312 -21.746094 L 4.972656 -20.378906 L 4.875 -19.597656 L 4.777344 -17.550781 L 4.777344 -15.015625 L 4.679688 -14.332031 L 4.679688 -13.457031 L 4.777344 -12.675781 L 4.777344 -10.824219 L 4.972656 -10.140625 L 5.167969 -8.875 L 5.363281 -8.289062 L 5.65625 -7.019531 L 6.53125 -5.753906 L 7.214844 -4.386719 L 7.703125 -3.898438 L 8.09375 -3.414062 L 9.359375 -2.4375 L 9.945312 -2.046875 L 10.433594 -1.65625 L 11.410156 -1.074219 L 11.992188 -0.585938 L 13.164062 -0.195312 L 14.429688 0.292969 L 15.015625 0.390625 L 15.699219 0.585938 L 16.675781 0.683594 L 17.257812 0.78125 L 18.039062 0.878906 L 19.113281 0.976562 L 19.792969 1.074219 L 20.476562 1.074219 Z M 21.355469 1.171875 "/></g></g></g><g fill="#000000" fill-opacity="1"><g transform="translate(230.92127, 194.626551)"><g><path d="M 4.289062 0 L 5.265625 -0.0976562 L 6.144531 0 L 7.996094 0 L 8.679688 -0.0976562 L 8.972656 0 L 9.554688 0 L 10.921875 -0.0976562 L 12.089844 0 L 12.96875 -0.0976562 L 15.503906 -0.0976562 L 16.578125 -0.488281 L 17.0625 -2.4375 L 17.0625 -3.609375 L 17.453125 -4.679688 L 17.84375 -6.046875 L 17.941406 -7.3125 L 18.039062 -7.996094 L 18.234375 -8.582031 L 18.527344 -9.75 L 18.820312 -11.3125 L 19.015625 -13.359375 L 19.210938 -13.945312 L 19.5 -14.625 L 19.597656 -15.894531 L 19.695312 -16.675781 L 19.792969 -18.039062 L 19.988281 -18.820312 L 20.28125 -20.183594 L 20.28125 -20.769531 L 20.378906 -21.453125 L 20.574219 -22.621094 L 20.769531 -23.890625 L 20.964844 -25.9375 L 21.160156 -26.523438 L 21.257812 -27.207031 L 21.453125 -27.984375 L 21.550781 -28.570312 L 21.84375 -28.570312 L 22.425781 -27.109375 L 23.304688 -24.574219 L 23.597656 -23.792969 L 23.890625 -22.914062 L 23.988281 -22.132812 L 24.476562 -21.0625 L 24.476562 -20.378906 L 24.960938 -19.308594 L 25.253906 -18.625 L 25.351562 -18.039062 L 25.546875 -16.773438 L 26.132812 -15.503906 L 26.523438 -14.332031 L 26.914062 -12.96875 L 27.398438 -11.605469 L 27.59375 -11.019531 L 27.789062 -10.335938 L 28.082031 -9.070312 L 28.472656 -8.289062 L 28.863281 -7.117188 L 29.644531 -4.386719 L 30.519531 -2.046875 L 30.8125 -0.78125 L 31.203125 -0.195312 L 32.375 0 L 34.519531 -0.0976562 L 35.199219 0 L 37.25 0 L 38.125 -0.0976562 L 41.148438 0 L 43.585938 0 L 45.828125 -0.0976562 L 45.925781 -0.976562 L 45.730469 -1.460938 L 45.148438 -3.121094 L 44.757812 -4.191406 L 44.074219 -5.363281 L 43.78125 -6.4375 L 43.683594 -7.214844 L 43.390625 -7.703125 L 43.097656 -8.386719 L 43.097656 -9.164062 L 42.808594 -9.75 L 42.710938 -10.433594 L 42.613281 -11.3125 L 41.832031 -12.480469 L 41.832031 -13.066406 L 41.441406 -14.332031 L 41.050781 -15.015625 L 41.050781 -15.601562 L 40.953125 -16.285156 L 40.175781 -17.453125 L 39.980469 -18.136719 L 39.589844 -19.308594 L 39.101562 -20.378906 L 39.003906 -21.0625 L 38.613281 -21.941406 L 38.515625 -22.523438 L 38.222656 -23.304688 L 38.125 -24.085938 L 37.734375 -24.960938 L 37.25 -26.035156 L 36.859375 -27.300781 L 36.664062 -28.082031 L 35.882812 -30.8125 L 35.589844 -31.984375 L 35.101562 -33.152344 L 34.910156 -34.128906 L 34.421875 -35.6875 L 34.226562 -36.664062 L 35.199219 -38.613281 L 36.957031 -40.953125 L 37.640625 -42.027344 L 38.125 -42.902344 L 38.808594 -43.78125 L 39.882812 -45.441406 L 40.757812 -46.609375 L 41.441406 -47.585938 L 42.902344 -49.730469 L 43.488281 -50.511719 L 44.074219 -51.386719 L 45.050781 -52.558594 L 45.535156 -53.242188 L 46.121094 -53.921875 L 46.511719 -54.898438 L 47.292969 -55.777344 L 47.683594 -56.554688 L 48.265625 -57.140625 L 48.65625 -57.726562 L 49.4375 -58.601562 L 49.925781 -59.578125 L 50.316406 -60.261719 L 50.996094 -61.234375 L 51.386719 -61.722656 L 51.484375 -62.308594 L 51.972656 -62.796875 L 52.460938 -63.480469 L 53.335938 -64.550781 L 54.117188 -65.527344 L 54.410156 -66.210938 L 55.191406 -67.378906 L 54.898438 -68.0625 L 53.726562 -68.355469 L 52.851562 -68.257812 L 50.898438 -68.453125 L 49.535156 -68.257812 L 47.683594 -68.257812 L 47.195312 -68.160156 L 46.21875 -68.257812 L 43.195312 -68.257812 L 41.441406 -68.355469 L 40.464844 -68.0625 L 39.6875 -66.988281 L 39.394531 -66.210938 L 38.808594 -65.625 L 37.734375 -64.160156 L 36.859375 -62.894531 L 35.785156 -61.429688 L 35.199219 -60.652344 L 35.007812 -59.96875 L 34.128906 -58.894531 L 33.152344 -57.433594 L 32.664062 -56.554688 L 31.886719 -55.679688 L 31.203125 -54.703125 L 30.421875 -53.726562 L 30.226562 -53.242188 L 29.742188 -52.265625 L 28.960938 -51.582031 L 28.375 -50.800781 L 27.789062 -49.925781 L 26.71875 -48.65625 L 26.132812 -47.488281 L 25.15625 -46.511719 L 24.960938 -47.195312 L 25.253906 -48.949219 L 25.546875 -50.121094 L 26.035156 -52.753906 L 26.230469 -53.335938 L 26.230469 -54.019531 L 26.425781 -54.703125 L 26.523438 -55.679688 L 26.71875 -56.554688 L 26.914062 -57.335938 L 27.109375 -59.285156 L 27.207031 -59.96875 L 27.496094 -61.429688 L 27.789062 -63.089844 L 27.886719 -64.453125 L 28.082031 -66.113281 L 28.277344 -67.085938 L 27.984375 -67.769531 L 27.207031 -68.160156 L 25.742188 -68.160156 L 24.28125 -68.257812 L 23.597656 -68.257812 L 21.746094 -68.160156 L 20.378906 -68.257812 L 17.941406 -68.257812 L 16.578125 -68.355469 L 15.894531 -68.160156 L 15.015625 -68.160156 L 14.625 -67.867188 L 14.332031 -66.988281 L 14.042969 -65.136719 L 13.847656 -63.964844 L 13.847656 -62.699219 L 13.554688 -61.625 L 13.554688 -60.359375 L 13.164062 -59.089844 L 12.773438 -56.554688 L 12.675781 -55.777344 L 12.480469 -55.191406 L 12.382812 -53.824219 L 12.382812 -53.242188 L 12.1875 -52.558594 L 12.1875 -51.972656 L 11.992188 -51.289062 L 11.699219 -50.121094 L 11.796875 -49.4375 L 11.605469 -48.074219 L 11.3125 -47.488281 L 11.214844 -46.21875 L 11.019531 -45.535156 L 11.019531 -44.953125 L 10.726562 -44.367188 L 10.628906 -43 L 10.53125 -41.929688 L 10.238281 -40.5625 L 9.945312 -39.003906 L 9.847656 -38.320312 L 9.75 -37.542969 L 9.457031 -36.175781 L 9.070312 -34.226562 L 8.875 -32.761719 L 8.777344 -32.082031 L 8.679688 -30.714844 L 8.289062 -29.253906 L 7.996094 -27.789062 L 7.800781 -27.011719 L 7.507812 -25.644531 L 7.117188 -22.914062 L 6.921875 -21.453125 L 6.628906 -20.085938 L 6.144531 -18.039062 L 6.144531 -17.355469 L 5.753906 -16.089844 L 5.753906 -15.503906 L 5.558594 -14.917969 L 5.460938 -13.554688 L 5.167969 -12.871094 L 4.972656 -11.117188 L 4.972656 -10.628906 L 4.679688 -9.359375 L 4.679688 -8.679688 L 4.582031 -7.898438 L 4.582031 -7.214844 L 4.191406 -5.949219 L 4.09375 -5.363281 L 3.804688 -4.09375 L 3.898438 -3.414062 L 3.609375 -2.730469 L 3.609375 -2.046875 L 3.511719 -0.585938 Z M 4.289062 0 "/></g></g></g><g fill="#8c52ff" fill-opacity="0.5294"><g transform="translate(65.210726, 248.036284)"><g><path d="M 36.191406 -44.203125 C 35.449219 -42.554688 34.707031 -40.90625 33.796875 -39.402344 C 30.433594 -33.730469 26.308594 -28.714844 22.007812 -23.84375 C 14.945312 -15.8125 7.953125 -7.863281 1.046875 0.15625 C -0.699219 2.199219 -2.355469 4.320312 -3.851562 6.503906 C -4.628906 7.679688 -5.15625 9.070312 -5.519531 10.449219 C -6.148438 12.566406 -5.242188 13.925781 -3.273438 14.71875 C -1.472656 15.371094 0.347656 15.304688 2.078125 15.085938 C 5.316406 14.828125 8.246094 13.722656 11.078125 12.382812 C 24.332031 6.238281 37.410156 -0.128906 50.183594 -7.265625 C 52.089844 -8.289062 53.894531 -9.546875 55.707031 -10.722656 C 56.164062 -11 56.441406 -11.496094 56.871094 -12.089844 C 54.609375 -12.542969 54.617188 -12.464844 52.625 -11.511719 C 38.699219 -4.839844 24.773438 1.835938 10.84375 8.429688 C 8.46875 9.570312 5.929688 10.570312 3.460938 11.480469 C 2.839844 11.691406 2.117188 11.589844 1.40625 11.644531 C 0.695312 9.714844 1.523438 8.140625 2.449219 6.796875 C 4.15625 4.277344 5.867188 1.835938 7.820312 -0.546875 C 14.199219 -8.203125 20.660156 -15.871094 27.117188 -23.535156 C 29.878906 -26.773438 32.730469 -29.863281 35.242188 -33.242188 C 37.691406 -36.375 39.964844 -39.734375 41.917969 -43.148438 C 44.226562 -47.066406 42.386719 -49.222656 38.210938 -49.765625 C 37.808594 -49.8125 37.496094 -49.785156 37.101562 -49.753906 C 34.976562 -49.507812 32.757812 -49.410156 30.65625 -48.84375 C 25.457031 -47.316406 20.347656 -45.636719 15.152344 -44.03125 C 14.535156 -43.824219 13.816406 -43.84375 12.957031 -43.695312 C 13.585938 -45.734375 14.761719 -46.9375 15.9375 -48.144531 C 21.949219 -54.425781 28.394531 -60.261719 35.371094 -65.425781 C 37.921875 -67.300781 40.65625 -68.867188 43.394531 -70.4375 C 44.84375 -71.1875 46.285156 -72.019531 48.1875 -72.089844 C 49.996094 -68.34375 48.136719 -64.777344 47.792969 -61.097656 C 48.265625 -61.132812 48.746094 -61.09375 48.976562 -61.191406 C 51.898438 -63.410156 53.558594 -66.480469 54.316406 -69.957031 C 54.882812 -72.785156 53.382812 -74.652344 50.351562 -74.804688 C 48.195312 -74.953125 45.984375 -74.773438 44.003906 -73.742188 C 40.953125 -72.148438 37.738281 -70.621094 34.785156 -68.796875 C 26.320312 -63.355469 18.644531 -57.019531 11.425781 -49.929688 C 10.25 -48.722656 9.074219 -47.515625 8.070312 -46.167969 C 7.132812 -44.980469 5.808594 -43.679688 6.734375 -42.007812 C 7.65625 -40.414062 9.332031 -40.308594 10.917969 -40.355469 C 13.207031 -40.539062 15.492188 -40.800781 17.753906 -41.300781 C 21.019531 -42.195312 24.1875 -43.320312 27.445312 -44.296875 C 30.160156 -45.148438 32.957031 -45.929688 36.292969 -46.910156 C 36.242188 -45.554688 36.464844 -44.777344 36.191406 -44.203125 Z M 36.191406 -44.203125 "/></g></g></g><g fill="#8c52ff" fill-opacity="0.5294"><g transform="translate(127.330513, 243.075983)"><g><path d="M 26.613281 -10.945312 C 24.136719 -9.15625 22.109375 -6.691406 18.992188 -4.933594 C 19.257812 -6.542969 19.402344 -7.746094 19.714844 -8.804688 C 20.707031 -12.300781 21.777344 -15.800781 22.691406 -19.289062 C 23.070312 -20.511719 23.363281 -21.804688 23.492188 -23.167969 C 23.636719 -25.324219 22.621094 -26.117188 20.40625 -26.019531 C 18.976562 -25.984375 17.738281 -25.566406 16.699219 -24.691406 C 14.917969 -23.117188 13.058594 -21.539062 11.367188 -19.816406 C 9.386719 -17.75 7.582031 -15.460938 5.695312 -13.246094 C 5.324219 -12.898438 4.871094 -12.625 3.980469 -11.835938 C 4.554688 -14.585938 5.101562 -16.695312 5.410156 -18.785156 C 5.78125 -21.117188 5.007812 -21.851562 2.644531 -21.582031 C 2.171875 -21.542969 1.804688 -21.195312 1.261719 -20.996094 C 0.453125 -17.195312 -0.433594 -13.390625 -1.085938 -9.605469 C -1.507812 -6.949219 -0.136719 -5.707031 2.496094 -6.554688 C 3.351562 -6.78125 4.175781 -7.402344 4.921875 -8.019531 C 6.101562 -9.148438 7.269531 -10.433594 8.367188 -11.632812 C 10.253906 -13.847656 12.144531 -16.0625 14.039062 -18.203125 C 15.28125 -19.570312 16.617188 -20.710938 17.945312 -22.007812 C 18.691406 -20.636719 17.976562 -19.628906 17.734375 -18.65625 C 16.839844 -14.929688 15.789062 -11.191406 14.894531 -7.464844 C 14.601562 -6.171875 14.628906 -4.824219 14.65625 -3.472656 C 14.757812 -2.210938 15.527344 -1.558594 16.800781 -1.5 C 17.753906 -1.496094 18.78125 -1.578125 19.625 -1.964844 C 20.769531 -2.53125 21.90625 -3.257812 22.863281 -4.207031 C 26.476562 -7.675781 30.085938 -11.222656 33.695312 -14.765625 C 33.914062 -15.023438 34.046875 -15.351562 34.472656 -16.019531 C 30.871094 -15.335938 28.929688 -12.796875 26.613281 -10.945312 Z M 26.613281 -10.945312 "/></g></g></g><g fill="#8c52ff" fill-opacity="0.5294"><g transform="translate(158.982402, 240.548561)"><g><path d="M 29.753906 -21.363281 C 27.4375 -19.511719 25.015625 -18.046875 22.136719 -17.257812 C 20.1875 -16.785156 18.28125 -16.792969 16.703125 -18.652344 C 17.800781 -21.839844 18.914062 -24.789062 19.949219 -27.730469 C 20.277344 -28.628906 20.582031 -29.765625 19.652344 -30.488281 C 18.726562 -31.128906 17.613281 -31.117188 16.539062 -30.636719 C 16 -30.433594 15.386719 -30.148438 15.023438 -29.71875 C 12.179688 -26.554688 10.484375 -22.921875 11.074219 -18.519531 C 11.222656 -17.660156 11.285156 -16.871094 10.945312 -16.128906 C 8.675781 -11.734375 6.410156 -7.265625 4.132812 -2.953125 C 3.863281 -2.375 3.53125 -1.554688 2.230469 -1.925781 C 2.222656 -3.992188 2.132812 -6.128906 2.277344 -8.285156 C 2.4375 -11.238281 2.59375 -14.269531 2.671875 -17.292969 C 2.699219 -17.933594 2.410156 -18.542969 2.09375 -19.550781 C 1.5 -19.027344 1.039062 -18.832031 0.828125 -18.496094 C 0.488281 -17.753906 0.15625 -16.933594 0.0703125 -16.054688 C -0.527344 -11.558594 -0.957031 -6.996094 -1.464844 -2.425781 C -1.578125 -1.859375 -1.449219 -1.234375 -1.398438 -0.601562 C -1.015625 1.195312 0.25 2.125 1.972656 1.828125 C 3.066406 1.582031 4.144531 1.179688 4.882812 0.484375 C 5.933594 -0.316406 6.882812 -1.34375 7.589844 -2.433594 C 9.488281 -5.523438 11.308594 -8.609375 13.121094 -11.773438 C 13.75 -12.855469 14.371094 -14.019531 14.929688 -15.015625 C 24.464844 -14.980469 29.457031 -17.128906 32.921875 -22.488281 C 31.527344 -23.015625 30.652344 -22.070312 29.753906 -21.363281 Z M 29.753906 -21.363281 "/></g></g></g><g fill="#8c52ff" fill-opacity="0.5294"><g transform="translate(188.739915, 238.172406)"><g><path d="M 25.117188 -22.742188 C 23.585938 -21.984375 23.289062 -20.765625 22.730469 -19.769531 C 19.273438 -14.328125 15.042969 -9.621094 9.785156 -5.785156 C 8.363281 -4.71875 6.9375 -3.652344 4.820312 -3.324219 C 4.441406 -4.089844 3.988281 -4.765625 3.847656 -5.550781 C 3.769531 -6.496094 3.851562 -7.457031 4.015625 -8.425781 C 4.777344 -11.820312 5.539062 -15.21875 6.378906 -18.621094 C 6.605469 -19.753906 7.148438 -20.910156 6.894531 -22.082031 C 4.136719 -22.8125 3.359375 -22.59375 2.332031 -20.523438 C 0.433594 -16.480469 -0.976562 -12.234375 -1.65625 -7.8125 C -1.699219 -7.332031 -1.738281 -6.851562 -1.78125 -6.371094 C -1.945312 -2.464844 -0.125 -0.546875 3.835938 -0.703125 C 6.613281 -0.765625 9.003906 -1.671875 11.257812 -3.28125 C 16.433594 -7.113281 20.75 -11.746094 23.78125 -17.550781 C 24.40625 -18.710938 24.863281 -19.941406 25.234375 -21.242188 C 25.367188 -21.570312 25.171875 -22.03125 25.117188 -22.742188 Z M 7.804688 -29.621094 C 8.171875 -29.96875 8.464844 -30.308594 8.667969 -30.722656 C 9.128906 -31.949219 9.507812 -33.171875 10.101562 -34.648438 C 7.84375 -35.105469 5.953125 -34.875 4.21875 -33.703125 C 2.863281 -32.800781 2.535156 -30.949219 3.332031 -29.898438 C 4.394531 -28.554688 6.550781 -28.40625 7.804688 -29.621094 Z M 7.804688 -29.621094 "/></g></g></g><g fill="#8c52ff" fill-opacity="0.5294"><g transform="translate(211.70924, 236.338292)"><g><path d="M 29.582031 -20.554688 C 28.164062 -19.410156 26.828125 -18.191406 25.582031 -16.898438 C 21.417969 -12.355469 17.335938 -7.738281 13.171875 -3.195312 C 12.367188 -2.339844 11.558594 -1.480469 10.609375 -0.449219 C 8.496094 -3.0625 7.082031 -5.808594 6.054688 -8.746094 C 5.136719 -11.292969 5.335938 -13.773438 6.335938 -16.15625 C 7.730469 -19.605469 10.140625 -22.257812 13.492188 -24.035156 C 14.027344 -24.316406 14.757812 -24.136719 15.625 -24.207031 C 15.453125 -22.367188 15.335938 -20.847656 15.117188 -18.605469 C 16.199219 -19.007812 17.144531 -19.085938 17.429688 -19.503906 C 18.363281 -20.769531 19.128906 -22.105469 19.726562 -23.582031 C 20.183594 -24.808594 19.617188 -25.957031 18.300781 -26.488281 C 17.566406 -26.746094 16.679688 -26.914062 15.882812 -26.929688 C 9.367188 -26.964844 2.105469 -21.378906 0.460938 -15.132812 C -0.0859375 -13.023438 -0.304688 -10.78125 0.65625 -8.710938 C 1.542969 -6.558594 2.59375 -4.339844 3.789062 -2.289062 C 4.902344 -0.3125 6.164062 1.574219 7.355469 3.542969 C 6.488281 4.644531 5.769531 5.578125 5.054688 6.585938 C 3.640625 8.765625 2.144531 10.949219 0.820312 13.28125 C 0.265625 14.277344 0.0507812 15.566406 -0.0117188 16.765625 C -0.117188 18.441406 0.90625 19.3125 2.742188 19.402344 C 4.175781 19.449219 5.570312 19.019531 6.855469 18.203125 C 8.742188 16.9375 10.449219 15.453125 11.804688 13.515625 C 13.382812 11.402344 14.148438 9.039062 13.539062 6.386719 C 13.414062 5.839844 13.285156 5.214844 13.15625 4.589844 C 14.023438 3.488281 14.816406 2.472656 15.609375 1.453125 C 20.757812 -4.675781 25.917969 -10.730469 30.988281 -16.855469 C 31.789062 -17.792969 32.59375 -18.648438 33.304688 -19.660156 C 33.589844 -20.082031 33.625 -20.640625 33.816406 -21.210938 C 32.011719 -21.941406 30.6875 -21.597656 29.582031 -20.554688 Z M 9.214844 12.929688 C 8.398438 14.660156 7.160156 16.03125 5.054688 16.519531 C 5.945312 13.746094 7.515625 11.554688 9.558594 9.246094 C 10.320312 10.855469 9.769531 11.929688 9.214844 12.929688 Z M 9.214844 12.929688 "/></g></g></g><g fill="#8c52ff" fill-opacity="0.5294"><g transform="translate(239.572377, 234.113405)"><g><path d="M 25.117188 -22.742188 C 23.585938 -21.984375 23.289062 -20.765625 22.730469 -19.769531 C 19.273438 -14.328125 15.042969 -9.621094 9.785156 -5.785156 C 8.363281 -4.71875 6.9375 -3.652344 4.820312 -3.324219 C 4.441406 -4.089844 3.988281 -4.765625 3.847656 -5.550781 C 3.769531 -6.496094 3.851562 -7.457031 4.015625 -8.425781 C 4.777344 -11.820312 5.539062 -15.21875 6.378906 -18.621094 C 6.605469 -19.753906 7.148438 -20.910156 6.894531 -22.082031 C 4.136719 -22.8125 3.359375 -22.59375 2.332031 -20.523438 C 0.433594 -16.480469 -0.976562 -12.234375 -1.65625 -7.8125 C -1.699219 -7.332031 -1.738281 -6.851562 -1.78125 -6.371094 C -1.945312 -2.464844 -0.125 -0.546875 3.835938 -0.703125 C 6.613281 -0.765625 9.003906 -1.671875 11.257812 -3.28125 C 16.433594 -7.113281 20.75 -11.746094 23.78125 -17.550781 C 24.40625 -18.710938 24.863281 -19.941406 25.234375 -21.242188 C 25.367188 -21.570312 25.171875 -22.03125 25.117188 -22.742188 Z M 7.804688 -29.621094 C 8.171875 -29.96875 8.464844 -30.308594 8.667969 -30.722656 C 9.128906 -31.949219 9.507812 -33.171875 10.101562 -34.648438 C 7.84375 -35.105469 5.953125 -34.875 4.21875 -33.703125 C 2.863281 -32.800781 2.535156 -30.949219 3.332031 -29.898438 C 4.394531 -28.554688 6.550781 -28.40625 7.804688 -29.621094 Z M 7.804688 -29.621094 "/></g></g></g><g fill="#8c52ff" fill-opacity="0.5294"><g transform="translate(262.541702, 232.279291)"><g><path d="M 18.144531 -9.550781 C 16.683594 -8.957031 15.222656 -8.367188 13.511719 -8.863281 C 13.890625 -10.085938 14.199219 -11.222656 14.511719 -12.28125 C 15.25 -14.960938 15.832031 -17.628906 15.691406 -20.398438 C 15.5625 -23.964844 14.058594 -25.910156 11.507812 -26.023438 C 10.789062 -26.046875 10.085938 -25.910156 9.386719 -25.695312 C 7.214844 -25.046875 5.433594 -23.472656 3.847656 -21.441406 C 2.191406 -19.320312 1.03125 -16.925781 1.355469 -13.851562 C 0.601562 -12.363281 -0.160156 -10.949219 -0.839844 -9.546875 C -1.570312 -7.738281 -2.292969 -5.855469 -2.445312 -3.777344 C -2.613281 -0.902344 -1.753906 0.933594 0.269531 1.410156 C 1.488281 1.707031 2.828125 1.601562 3.996094 1.269531 C 5.863281 0.804688 7.5 -0.597656 8.953125 -2.304688 C 10.121094 -3.589844 11.28125 -4.953125 12.589844 -6.488281 C 17.867188 -7.066406 18.484375 -7.277344 20.300781 -9.40625 C 19.0625 -10.023438 19.0625 -10.023438 18.144531 -9.550781 Z M 2.433594 -0.351562 C 1.652344 -0.210938 0.980469 -0.632812 0.894531 -1.738281 C 0.734375 -2.757812 0.722656 -3.871094 0.878906 -4.917969 C 1.265625 -7.011719 1.820312 -9.042969 2.933594 -11.039062 C 4.113281 -10.179688 4.964844 -9.453125 5.890625 -8.8125 C 6.808594 -8.25 7.808594 -7.695312 8.804688 -7.136719 C 7.683594 -4.269531 4.457031 -0.910156 2.433594 -0.351562 Z M 10.425781 -9.730469 C 8.453125 -10.527344 7.164062 -11.773438 6.414062 -14.175781 C 5.984375 -15.574219 5.898438 -16.675781 6.429688 -17.992188 C 7.570312 -20.625 9.0625 -22.808594 11.203125 -23.855469 C 12.273438 -23.382812 12.53125 -22.132812 12.628906 -20.949219 C 12.949219 -16.921875 12.132812 -13.203125 10.425781 -9.730469 Z M 10.425781 -9.730469 "/></g></g></g><g fill="#8c52ff" fill-opacity="0.5294"><g transform="translate(281.3276, 230.779226)"><g><path d="M 26.613281 -10.945312 C 24.136719 -9.15625 22.109375 -6.691406 18.992188 -4.933594 C 19.257812 -6.542969 19.402344 -7.746094 19.714844 -8.804688 C 20.707031 -12.300781 21.777344 -15.800781 22.691406 -19.289062 C 23.070312 -20.511719 23.363281 -21.804688 23.492188 -23.167969 C 23.636719 -25.324219 22.621094 -26.117188 20.40625 -26.019531 C 18.976562 -25.984375 17.738281 -25.566406 16.699219 -24.691406 C 14.917969 -23.117188 13.058594 -21.539062 11.367188 -19.816406 C 9.386719 -17.75 7.582031 -15.460938 5.695312 -13.246094 C 5.324219 -12.898438 4.871094 -12.625 3.980469 -11.835938 C 4.554688 -14.585938 5.101562 -16.695312 5.410156 -18.785156 C 5.78125 -21.117188 5.007812 -21.851562 2.644531 -21.582031 C 2.171875 -21.542969 1.804688 -21.195312 1.261719 -20.996094 C 0.453125 -17.195312 -0.433594 -13.390625 -1.085938 -9.605469 C -1.507812 -6.949219 -0.136719 -5.707031 2.496094 -6.554688 C 3.351562 -6.78125 4.175781 -7.402344 4.921875 -8.019531 C 6.101562 -9.148438 7.269531 -10.433594 8.367188 -11.632812 C 10.253906 -13.847656 12.144531 -16.0625 14.039062 -18.203125 C 15.28125 -19.570312 16.617188 -20.710938 17.945312 -22.007812 C 18.691406 -20.636719 17.976562 -19.628906 17.734375 -18.65625 C 16.839844 -14.929688 15.789062 -11.191406 14.894531 -7.464844 C 14.601562 -6.171875 14.628906 -4.824219 14.65625 -3.472656 C 14.757812 -2.210938 15.527344 -1.558594 16.800781 -1.5 C 17.753906 -1.496094 18.78125 -1.578125 19.625 -1.964844 C 20.769531 -2.53125 21.90625 -3.257812 22.863281 -4.207031 C 26.476562 -7.675781 30.085938 -11.222656 33.695312 -14.765625 C 33.914062 -15.023438 34.046875 -15.351562 34.472656 -16.019531 C 30.871094 -15.335938 28.929688 -12.796875 26.613281 -10.945312 Z M 26.613281 -10.945312 "/></g></g></g><g fill="#05347e" fill-opacity="1"><g transform="translate(67.733791, 244.856913)"><g><path d="M 36.191406 -44.203125 C 35.449219 -42.554688 34.707031 -40.90625 33.796875 -39.402344 C 30.433594 -33.730469 26.308594 -28.714844 22.007812 -23.84375 C 14.945312 -15.8125 7.953125 -7.863281 1.046875 0.15625 C -0.699219 2.199219 -2.355469 4.320312 -3.851562 6.503906 C -4.628906 7.679688 -5.15625 9.070312 -5.519531 10.449219 C -6.148438 12.566406 -5.242188 13.925781 -3.273438 14.71875 C -1.472656 15.371094 0.347656 15.304688 2.078125 15.085938 C 5.316406 14.828125 8.246094 13.722656 11.078125 12.382812 C 24.332031 6.238281 37.410156 -0.128906 50.183594 -7.265625 C 52.089844 -8.289062 53.894531 -9.546875 55.707031 -10.722656 C 56.164062 -11 56.441406 -11.496094 56.871094 -12.089844 C 54.609375 -12.542969 54.617188 -12.464844 52.625 -11.511719 C 38.699219 -4.839844 24.773438 1.835938 10.84375 8.429688 C 8.46875 9.570312 5.929688 10.570312 3.460938 11.480469 C 2.839844 11.691406 2.117188 11.589844 1.40625 11.644531 C 0.695312 9.714844 1.523438 8.140625 2.449219 6.796875 C 4.15625 4.277344 5.867188 1.835938 7.820312 -0.546875 C 14.199219 -8.203125 20.660156 -15.871094 27.117188 -23.535156 C 29.878906 -26.773438 32.730469 -29.863281 35.242188 -33.242188 C 37.691406 -36.375 39.964844 -39.734375 41.917969 -43.148438 C 44.226562 -47.066406 42.386719 -49.222656 38.210938 -49.765625 C 37.808594 -49.8125 37.496094 -49.785156 37.101562 -49.753906 C 34.976562 -49.507812 32.757812 -49.410156 30.65625 -48.84375 C 25.457031 -47.316406 20.347656 -45.636719 15.152344 -44.03125 C 14.535156 -43.824219 13.816406 -43.84375 12.957031 -43.695312 C 13.585938 -45.734375 14.761719 -46.9375 15.9375 -48.144531 C 21.949219 -54.425781 28.394531 -60.261719 35.371094 -65.425781 C 37.921875 -67.300781 40.65625 -68.867188 43.394531 -70.4375 C 44.84375 -71.1875 46.285156 -72.019531 48.1875 -72.089844 C 49.996094 -68.34375 48.136719 -64.777344 47.792969 -61.097656 C 48.265625 -61.132812 48.746094 -61.09375 48.976562 -61.191406 C 51.898438 -63.410156 53.558594 -66.480469 54.316406 -69.957031 C 54.882812 -72.785156 53.382812 -74.652344 50.351562 -74.804688 C 48.195312 -74.953125 45.984375 -74.773438 44.003906 -73.742188 C 40.953125 -72.148438 37.738281 -70.621094 34.785156 -68.796875 C 26.320312 -63.355469 18.644531 -57.019531 11.425781 -49.929688 C 10.25 -48.722656 9.074219 -47.515625 8.070312 -46.167969 C 7.132812 -44.980469 5.808594 -43.679688 6.734375 -42.007812 C 7.65625 -40.414062 9.332031 -40.308594 10.917969 -40.355469 C 13.207031 -40.539062 15.492188 -40.800781 17.753906 -41.300781 C 21.019531 -42.195312 24.1875 -43.320312 27.445312 -44.296875 C 30.160156 -45.148438 32.957031 -45.929688 36.292969 -46.910156 C 36.242188 -45.554688 36.464844 -44.777344 36.191406 -44.203125 Z M 36.191406 -44.203125 "/></g></g></g><g fill="#05347e" fill-opacity="1"><g transform="translate(129.853578, 239.896612)"><g><path d="M 26.613281 -10.945312 C 24.136719 -9.15625 22.109375 -6.691406 18.992188 -4.933594 C 19.257812 -6.542969 19.402344 -7.746094 19.714844 -8.804688 C 20.707031 -12.300781 21.777344 -15.800781 22.691406 -19.289062 C 23.070312 -20.511719 23.363281 -21.804688 23.492188 -23.167969 C 23.636719 -25.324219 22.621094 -26.117188 20.40625 -26.019531 C 18.976562 -25.984375 17.738281 -25.566406 16.699219 -24.691406 C 14.917969 -23.117188 13.058594 -21.539062 11.367188 -19.816406 C 9.386719 -17.75 7.582031 -15.460938 5.695312 -13.246094 C 5.324219 -12.898438 4.871094 -12.625 3.980469 -11.835938 C 4.554688 -14.585938 5.101562 -16.695312 5.410156 -18.785156 C 5.78125 -21.117188 5.007812 -21.851562 2.644531 -21.582031 C 2.171875 -21.542969 1.804688 -21.195312 1.261719 -20.996094 C 0.453125 -17.195312 -0.433594 -13.390625 -1.085938 -9.605469 C -1.507812 -6.949219 -0.136719 -5.707031 2.496094 -6.554688 C 3.351562 -6.78125 4.175781 -7.402344 4.921875 -8.019531 C 6.101562 -9.148438 7.269531 -10.433594 8.367188 -11.632812 C 10.253906 -13.847656 12.144531 -16.0625 14.039062 -18.203125 C 15.28125 -19.570312 16.617188 -20.710938 17.945312 -22.007812 C 18.691406 -20.636719 17.976562 -19.628906 17.734375 -18.65625 C 16.839844 -14.929688 15.789062 -11.191406 14.894531 -7.464844 C 14.601562 -6.171875 14.628906 -4.824219 14.65625 -3.472656 C 14.757812 -2.210938 15.527344 -1.558594 16.800781 -1.5 C 17.753906 -1.496094 18.78125 -1.578125 19.625 -1.964844 C 20.769531 -2.53125 21.90625 -3.257812 22.863281 -4.207031 C 26.476562 -7.675781 30.085938 -11.222656 33.695312 -14.765625 C 33.914062 -15.023438 34.046875 -15.351562 34.472656 -16.019531 C 30.871094 -15.335938 28.929688 -12.796875 26.613281 -10.945312 Z M 26.613281 -10.945312 "/></g></g></g><g fill="#05347e" fill-opacity="1"><g transform="translate(161.505467, 237.36919)"><g><path d="M 29.753906 -21.363281 C 27.4375 -19.511719 25.015625 -18.046875 22.136719 -17.257812 C 20.1875 -16.785156 18.28125 -16.792969 16.703125 -18.652344 C 17.800781 -21.839844 18.914062 -24.789062 19.949219 -27.730469 C 20.277344 -28.628906 20.582031 -29.765625 19.652344 -30.488281 C 18.726562 -31.128906 17.613281 -31.117188 16.539062 -30.636719 C 16 -30.433594 15.386719 -30.148438 15.023438 -29.71875 C 12.179688 -26.554688 10.484375 -22.921875 11.074219 -18.519531 C 11.222656 -17.660156 11.285156 -16.871094 10.945312 -16.128906 C 8.675781 -11.734375 6.410156 -7.265625 4.132812 -2.953125 C 3.863281 -2.375 3.53125 -1.554688 2.230469 -1.925781 C 2.222656 -3.992188 2.132812 -6.128906 2.277344 -8.285156 C 2.4375 -11.238281 2.59375 -14.269531 2.671875 -17.292969 C 2.699219 -17.933594 2.410156 -18.542969 2.09375 -19.550781 C 1.5 -19.027344 1.039062 -18.832031 0.828125 -18.496094 C 0.488281 -17.753906 0.15625 -16.933594 0.0703125 -16.054688 C -0.527344 -11.558594 -0.957031 -6.996094 -1.464844 -2.425781 C -1.578125 -1.859375 -1.449219 -1.234375 -1.398438 -0.601562 C -1.015625 1.195312 0.25 2.125 1.972656 1.828125 C 3.066406 1.582031 4.144531 1.179688 4.882812 0.484375 C 5.933594 -0.316406 6.882812 -1.34375 7.589844 -2.433594 C 9.488281 -5.523438 11.308594 -8.609375 13.121094 -11.773438 C 13.75 -12.855469 14.371094 -14.019531 14.929688 -15.015625 C 24.464844 -14.980469 29.457031 -17.128906 32.921875 -22.488281 C 31.527344 -23.015625 30.652344 -22.070312 29.753906 -21.363281 Z M 29.753906 -21.363281 "/></g></g></g><g fill="#05347e" fill-opacity="1"><g transform="translate(191.26298, 234.993035)"><g><path d="M 25.117188 -22.742188 C 23.585938 -21.984375 23.289062 -20.765625 22.730469 -19.769531 C 19.273438 -14.328125 15.042969 -9.621094 9.785156 -5.785156 C 8.363281 -4.71875 6.9375 -3.652344 4.820312 -3.324219 C 4.441406 -4.089844 3.988281 -4.765625 3.847656 -5.550781 C 3.769531 -6.496094 3.851562 -7.457031 4.015625 -8.425781 C 4.777344 -11.820312 5.539062 -15.21875 6.378906 -18.621094 C 6.605469 -19.753906 7.148438 -20.910156 6.894531 -22.082031 C 4.136719 -22.8125 3.359375 -22.59375 2.332031 -20.523438 C 0.433594 -16.480469 -0.976562 -12.234375 -1.65625 -7.8125 C -1.699219 -7.332031 -1.738281 -6.851562 -1.78125 -6.371094 C -1.945312 -2.464844 -0.125 -0.546875 3.835938 -0.703125 C 6.613281 -0.765625 9.003906 -1.671875 11.257812 -3.28125 C 16.433594 -7.113281 20.75 -11.746094 23.78125 -17.550781 C 24.40625 -18.710938 24.863281 -19.941406 25.234375 -21.242188 C 25.367188 -21.570312 25.171875 -22.03125 25.117188 -22.742188 Z M 7.804688 -29.621094 C 8.171875 -29.96875 8.464844 -30.308594 8.667969 -30.722656 C 9.128906 -31.949219 9.507812 -33.171875 10.101562 -34.648438 C 7.84375 -35.105469 5.953125 -34.875 4.21875 -33.703125 C 2.863281 -32.800781 2.535156 -30.949219 3.332031 -29.898438 C 4.394531 -28.554688 6.550781 -28.40625 7.804688 -29.621094 Z M 7.804688 -29.621094 "/></g></g></g><g fill="#05347e" fill-opacity="1"><g transform="translate(214.232305, 233.158921)"><g><path d="M 29.582031 -20.554688 C 28.164062 -19.410156 26.828125 -18.191406 25.582031 -16.898438 C 21.417969 -12.355469 17.335938 -7.738281 13.171875 -3.195312 C 12.367188 -2.339844 11.558594 -1.480469 10.609375 -0.449219 C 8.496094 -3.0625 7.082031 -5.808594 6.054688 -8.746094 C 5.136719 -11.292969 5.335938 -13.773438 6.335938 -16.15625 C 7.730469 -19.605469 10.140625 -22.257812 13.492188 -24.035156 C 14.027344 -24.316406 14.757812 -24.136719 15.625 -24.207031 C 15.453125 -22.367188 15.335938 -20.847656 15.117188 -18.605469 C 16.199219 -19.007812 17.144531 -19.085938 17.429688 -19.503906 C 18.363281 -20.769531 19.128906 -22.105469 19.726562 -23.582031 C 20.183594 -24.808594 19.617188 -25.957031 18.300781 -26.488281 C 17.566406 -26.746094 16.679688 -26.914062 15.882812 -26.929688 C 9.367188 -26.964844 2.105469 -21.378906 0.460938 -15.132812 C -0.0859375 -13.023438 -0.304688 -10.78125 0.65625 -8.710938 C 1.542969 -6.558594 2.59375 -4.339844 3.789062 -2.289062 C 4.902344 -0.3125 6.164062 1.574219 7.355469 3.542969 C 6.488281 4.644531 5.769531 5.578125 5.054688 6.585938 C 3.640625 8.765625 2.144531 10.949219 0.820312 13.28125 C 0.265625 14.277344 0.0507812 15.566406 -0.0117188 16.765625 C -0.117188 18.441406 0.90625 19.3125 2.742188 19.402344 C 4.175781 19.449219 5.570312 19.019531 6.855469 18.203125 C 8.742188 16.9375 10.449219 15.453125 11.804688 13.515625 C 13.382812 11.402344 14.148438 9.039062 13.539062 6.386719 C 13.414062 5.839844 13.285156 5.214844 13.15625 4.589844 C 14.023438 3.488281 14.816406 2.472656 15.609375 1.453125 C 20.757812 -4.675781 25.917969 -10.730469 30.988281 -16.855469 C 31.789062 -17.792969 32.59375 -18.648438 33.304688 -19.660156 C 33.589844 -20.082031 33.625 -20.640625 33.816406 -21.210938 C 32.011719 -21.941406 30.6875 -21.597656 29.582031 -20.554688 Z M 9.214844 12.929688 C 8.398438 14.660156 7.160156 16.03125 5.054688 16.519531 C 5.945312 13.746094 7.515625 11.554688 9.558594 9.246094 C 10.320312 10.855469 9.769531 11.929688 9.214844 12.929688 Z M 9.214844 12.929688 "/></g></g></g><g fill="#05347e" fill-opacity="1"><g transform="translate(242.095442, 230.934034)"><g><path d="M 25.117188 -22.742188 C 23.585938 -21.984375 23.289062 -20.765625 22.730469 -19.769531 C 19.273438 -14.328125 15.042969 -9.621094 9.785156 -5.785156 C 8.363281 -4.71875 6.9375 -3.652344 4.820312 -3.324219 C 4.441406 -4.089844 3.988281 -4.765625 3.847656 -5.550781 C 3.769531 -6.496094 3.851562 -7.457031 4.015625 -8.425781 C 4.777344 -11.820312 5.539062 -15.21875 6.378906 -18.621094 C 6.605469 -19.753906 7.148438 -20.910156 6.894531 -22.082031 C 4.136719 -22.8125 3.359375 -22.59375 2.332031 -20.523438 C 0.433594 -16.480469 -0.976562 -12.234375 -1.65625 -7.8125 C -1.699219 -7.332031 -1.738281 -6.851562 -1.78125 -6.371094 C -1.945312 -2.464844 -0.125 -0.546875 3.835938 -0.703125 C 6.613281 -0.765625 9.003906 -1.671875 11.257812 -3.28125 C 16.433594 -7.113281 20.75 -11.746094 23.78125 -17.550781 C 24.40625 -18.710938 24.863281 -19.941406 25.234375 -21.242188 C 25.367188 -21.570312 25.171875 -22.03125 25.117188 -22.742188 Z M 7.804688 -29.621094 C 8.171875 -29.96875 8.464844 -30.308594 8.667969 -30.722656 C 9.128906 -31.949219 9.507812 -33.171875 10.101562 -34.648438 C 7.84375 -35.105469 5.953125 -34.875 4.21875 -33.703125 C 2.863281 -32.800781 2.535156 -30.949219 3.332031 -29.898438 C 4.394531 -28.554688 6.550781 -28.40625 7.804688 -29.621094 Z M 7.804688 -29.621094 "/></g></g></g><g fill="#05347e" fill-opacity="1"><g transform="translate(265.064766, 229.09992)"><g><path d="M 18.144531 -9.550781 C 16.683594 -8.957031 15.222656 -8.367188 13.511719 -8.863281 C 13.890625 -10.085938 14.199219 -11.222656 14.511719 -12.28125 C 15.25 -14.960938 15.832031 -17.628906 15.691406 -20.398438 C 15.5625 -23.964844 14.058594 -25.910156 11.507812 -26.023438 C 10.789062 -26.046875 10.085938 -25.910156 9.386719 -25.695312 C 7.214844 -25.046875 5.433594 -23.472656 3.847656 -21.441406 C 2.191406 -19.320312 1.03125 -16.925781 1.355469 -13.851562 C 0.601562 -12.363281 -0.160156 -10.949219 -0.839844 -9.546875 C -1.570312 -7.738281 -2.292969 -5.855469 -2.445312 -3.777344 C -2.613281 -0.902344 -1.753906 0.933594 0.269531 1.410156 C 1.488281 1.707031 2.828125 1.601562 3.996094 1.269531 C 5.863281 0.804688 7.5 -0.597656 8.953125 -2.304688 C 10.121094 -3.589844 11.28125 -4.953125 12.589844 -6.488281 C 17.867188 -7.066406 18.484375 -7.277344 20.300781 -9.40625 C 19.0625 -10.023438 19.0625 -10.023438 18.144531 -9.550781 Z M 2.433594 -0.351562 C 1.652344 -0.210938 0.980469 -0.632812 0.894531 -1.738281 C 0.734375 -2.757812 0.722656 -3.871094 0.878906 -4.917969 C 1.265625 -7.011719 1.820312 -9.042969 2.933594 -11.039062 C 4.113281 -10.179688 4.964844 -9.453125 5.890625 -8.8125 C 6.808594 -8.25 7.808594 -7.695312 8.804688 -7.136719 C 7.683594 -4.269531 4.457031 -0.910156 2.433594 -0.351562 Z M 10.425781 -9.730469 C 8.453125 -10.527344 7.164062 -11.773438 6.414062 -14.175781 C 5.984375 -15.574219 5.898438 -16.675781 6.429688 -17.992188 C 7.570312 -20.625 9.0625 -22.808594 11.203125 -23.855469 C 12.273438 -23.382812 12.53125 -22.132812 12.628906 -20.949219 C 12.949219 -16.921875 12.132812 -13.203125 10.425781 -9.730469 Z M 10.425781 -9.730469 "/></g></g></g><g fill="#05347e" fill-opacity="1"><g transform="translate(283.850665, 227.599855)"><g><path d="M 26.613281 -10.945312 C 24.136719 -9.15625 22.109375 -6.691406 18.992188 -4.933594 C 19.257812 -6.542969 19.402344 -7.746094 19.714844 -8.804688 C 20.707031 -12.300781 21.777344 -15.800781 22.691406 -19.289062 C 23.070312 -20.511719 23.363281 -21.804688 23.492188 -23.167969 C 23.636719 -25.324219 22.621094 -26.117188 20.40625 -26.019531 C 18.976562 -25.984375 17.738281 -25.566406 16.699219 -24.691406 C 14.917969 -23.117188 13.058594 -21.539062 11.367188 -19.816406 C 9.386719 -17.75 7.582031 -15.460938 5.695312 -13.246094 C 5.324219 -12.898438 4.871094 -12.625 3.980469 -11.835938 C 4.554688 -14.585938 5.101562 -16.695312 5.410156 -18.785156 C 5.78125 -21.117188 5.007812 -21.851562 2.644531 -21.582031 C 2.171875 -21.542969 1.804688 -21.195312 1.261719 -20.996094 C 0.453125 -17.195312 -0.433594 -13.390625 -1.085938 -9.605469 C -1.507812 -6.949219 -0.136719 -5.707031 2.496094 -6.554688 C 3.351562 -6.78125 4.175781 -7.402344 4.921875 -8.019531 C 6.101562 -9.148438 7.269531 -10.433594 8.367188 -11.632812 C 10.253906 -13.847656 12.144531 -16.0625 14.039062 -18.203125 C 15.28125 -19.570312 16.617188 -20.710938 17.945312 -22.007812 C 18.691406 -20.636719 17.976562 -19.628906 17.734375 -18.65625 C 16.839844 -14.929688 15.789062 -11.191406 14.894531 -7.464844 C 14.601562 -6.171875 14.628906 -4.824219 14.65625 -3.472656 C 14.757812 -2.210938 15.527344 -1.558594 16.800781 -1.5 C 17.753906 -1.496094 18.78125 -1.578125 19.625 -1.964844 C 20.769531 -2.53125 21.90625 -3.257812 22.863281 -4.207031 C 26.476562 -7.675781 30.085938 -11.222656 33.695312 -14.765625 C 33.914062 -15.023438 34.046875 -15.351562 34.472656 -16.019531 C 30.871094 -15.335938 28.929688 -12.796875 26.613281 -10.945312 Z M 26.613281 -10.945312 "/></g></g></g></svg>